M48
; DRILL file {KiCad (6.0.4)} date Sat Jul 16 18:17:12 2022
; FORMAT={-:-/ absolute / inch / decimal}
; #@! TF.CreationDate,2022-07-16T18:17:12-05:00
; #@! TF.GenerationSoftware,Kicad,Pcbnew,(6.0.4)
; #@! TF.FileFunction,Plated,1,2,PTH
FMAT,2
INCH
; #@! TA.AperFunction,Plated,PTH,ComponentDrill
T1C0.0295
; #@! TA.AperFunction,Plated,PTH,ComponentDrill
T2C0.0315
; #@! TA.AperFunction,Plated,PTH,ComponentDrill
T3C0.0394
; #@! TA.AperFunction,Plated,PTH,ComponentDrill
T4C0.0433
%
G90
G05
T1
X2.8261Y-1.712
X2.8261Y-1.762
X2.8261Y-1.812
X2.8321Y-1.953
X2.8321Y-2.003
X2.8321Y-2.053
X2.8321Y-2.194
X2.8321Y-2.244
X2.8321Y-2.294
X2.8389Y-2.949
X2.8389Y-2.999
X2.8389Y-3.049
X2.8391Y-2.447
X2.8391Y-2.497
X2.8391Y-2.547
X2.8391Y-2.685
X2.8391Y-2.735
X2.8391Y-2.785
X2.8391Y-3.231
X2.8391Y-3.281
X2.8391Y-3.331
X2.8391Y-3.451
X2.8391Y-3.501
X2.8391Y-3.551
X2.8391Y-3.685
X2.8391Y-3.735
X2.8391Y-3.785
X2.8449Y-3.918
X2.8449Y-3.968
X2.8449Y-4.018
X2.8479Y-4.154
X2.8479Y-4.204
X2.8479Y-4.254
X2.8532Y-4.387
X2.8532Y-4.437
X2.8532Y-4.487
T2
X2.4909Y-2.999
X2.4919Y-2.735
X2.4949Y-2.497
X2.4949Y-3.281
X2.4979Y-3.501
X2.4979Y-3.735
X2.5009Y-2.244
X2.5049Y-1.786
X2.5079Y-2.003
X2.5079Y-3.968
X2.5129Y-4.437
X2.5139Y-4.204
X2.609Y-2.999
X2.61Y-2.735
X2.613Y-2.497
X2.613Y-3.281
X2.616Y-3.501
X2.616Y-3.735
X2.619Y-2.244
X2.623Y-1.786
X2.626Y-2.003
X2.626Y-3.968
X2.6311Y-4.437
X2.632Y-4.204
T3
X2.0797Y-2.2162
X2.0797Y-2.3162
X2.0797Y-2.4162
X2.0797Y-2.5162
X2.0797Y-2.6162
X2.0797Y-2.7162
X2.0797Y-2.8162
X2.0797Y-2.9162
X2.0797Y-3.0162
X2.0797Y-3.1162
X2.0797Y-3.2162
X2.0797Y-3.3162
X2.0797Y-3.4162
X2.0797Y-3.5162
X2.0797Y-3.6162
X2.0797Y-3.7162
X2.0797Y-3.8162
X2.0797Y-3.9162
X2.0797Y-4.0162
X2.0797Y-4.1162
X2.1797Y-2.2162
X2.1797Y-2.3162
X2.1797Y-2.4162
X2.1797Y-2.5162
X2.1797Y-2.6162
X2.1797Y-2.7162
X2.1797Y-2.8162
X2.1797Y-2.9162
X2.1797Y-3.0162
X2.1797Y-3.1162
X2.1797Y-3.2162
X2.1797Y-3.3162
X2.1797Y-3.4162
X2.1797Y-3.5162
X2.1797Y-3.6162
X2.1797Y-3.7162
X2.1797Y-3.8162
X2.1797Y-3.9162
X2.1797Y-4.0162
X2.1797Y-4.1162
T4
X0.862Y-0.956
X0.862Y-1.194
X0.862Y-1.432
X0.862Y-1.674
X0.862Y-3.246
X0.862Y-3.502
X0.862Y-3.742
X0.862Y-3.978
X0.862Y-4.203
X1.183Y-4.725
X1.183Y-4.968
X1.183Y-5.245
X1.567Y-4.725
X1.567Y-4.968
X1.9397Y-0.956
X2.1013Y-0.956
X2.263Y-0.956
X2.4247Y-0.956
X3.198Y-1.743
X3.198Y-2.003
X3.198Y-2.244
X3.198Y-2.497
X3.198Y-2.735
X3.198Y-2.999
X3.198Y-3.281
X3.198Y-3.501
X3.198Y-3.735
X3.198Y-3.968
X3.2051Y-4.437
X3.207Y-4.204
X3.517Y-1.743
X3.517Y-2.003
X3.517Y-2.244
X3.517Y-2.497
X3.517Y-2.735
X3.517Y-2.999
X3.517Y-3.281
X3.517Y-3.501
X3.517Y-3.735
X3.517Y-3.968
X3.517Y-4.204
X3.517Y-4.437
X3.517Y-4.694
X3.517Y-4.968
X3.517Y-5.204
X3.517Y-5.459
X3.517Y-5.702
X3.517Y-5.952
T0
M30
