%TF.GenerationSoftware,KiCad,Pcbnew,(6.0.4)*%
%TF.CreationDate,2022-07-16T18:17:00-05:00*%
%TF.ProjectId,macro_controller,6d616372-6f5f-4636-9f6e-74726f6c6c65,rev?*%
%TF.SameCoordinates,Original*%
%TF.FileFunction,Soldermask,Bot*%
%TF.FilePolarity,Negative*%
%FSLAX46Y46*%
G04 Gerber Fmt 4.6, Leading zero omitted, Abs format (unit mm)*
G04 Created by KiCad (PCBNEW (6.0.4)) date 2022-07-16 18:17:00*
%MOMM*%
%LPD*%
G01*
G04 APERTURE LIST*
G04 Aperture macros list*
%AMRoundRect*
0 Rectangle with rounded corners*
0 $1 Rounding radius*
0 $2 $3 $4 $5 $6 $7 $8 $9 X,Y pos of 4 corners*
0 Add a 4 corners polygon primitive as box body*
4,1,4,$2,$3,$4,$5,$6,$7,$8,$9,$2,$3,0*
0 Add four circle primitives for the rounded corners*
1,1,$1+$1,$2,$3*
1,1,$1+$1,$4,$5*
1,1,$1+$1,$6,$7*
1,1,$1+$1,$8,$9*
0 Add four rect primitives between the rounded corners*
20,1,$1+$1,$2,$3,$4,$5,0*
20,1,$1+$1,$4,$5,$6,$7,0*
20,1,$1+$1,$6,$7,$8,$9,0*
20,1,$1+$1,$8,$9,$2,$3,0*%
G04 Aperture macros list end*
%ADD10R,1.700000X1.700000*%
%ADD11O,1.700000X1.700000*%
%ADD12RoundRect,0.250001X-0.799999X-0.799999X0.799999X-0.799999X0.799999X0.799999X-0.799999X0.799999X0*%
%ADD13C,1.600000*%
%ADD14R,1.500000X1.050000*%
%ADD15O,1.500000X1.050000*%
G04 APERTURE END LIST*
D10*
%TO.C,J6*%
X52825600Y-56291400D03*
D11*
X55365600Y-56291400D03*
X52825600Y-58831400D03*
X55365600Y-58831400D03*
X52825600Y-61371400D03*
X55365600Y-61371400D03*
X52825600Y-63911400D03*
X55365600Y-63911400D03*
X52825600Y-66451400D03*
X55365600Y-66451400D03*
X52825600Y-68991400D03*
X55365600Y-68991400D03*
X52825600Y-71531400D03*
X55365600Y-71531400D03*
X52825600Y-74071400D03*
X55365600Y-74071400D03*
X52825600Y-76611400D03*
X55365600Y-76611400D03*
X52825600Y-79151400D03*
X55365600Y-79151400D03*
X52825600Y-81691400D03*
X55365600Y-81691400D03*
X52825600Y-84231400D03*
X55365600Y-84231400D03*
X52825600Y-86771400D03*
X55365600Y-86771400D03*
X52825600Y-89311400D03*
X55365600Y-89311400D03*
X52825600Y-91851400D03*
X55365600Y-91851400D03*
X52825600Y-94391400D03*
X55365600Y-94391400D03*
X52825600Y-96931400D03*
X55365600Y-96931400D03*
X52825600Y-99471400D03*
X55365600Y-99471400D03*
X52825600Y-102011400D03*
X55365600Y-102011400D03*
X52825600Y-104551400D03*
X55365600Y-104551400D03*
%TD*%
D12*
%TO.C,J24*%
X89331800Y-76174600D03*
%TD*%
%TO.C,J23*%
X89331800Y-69469000D03*
%TD*%
%TO.C,J22*%
X89331800Y-63423800D03*
%TD*%
%TO.C,J21*%
X89331800Y-56997600D03*
%TD*%
%TO.C,J20*%
X89331800Y-50876200D03*
%TD*%
%TO.C,J19*%
X89331800Y-44272200D03*
%TD*%
%TO.C,J18*%
X30048200Y-120015000D03*
%TD*%
%TO.C,J17*%
X30048200Y-133223000D03*
%TD*%
%TO.C,J16*%
X30048200Y-126187200D03*
%TD*%
%TO.C,J37*%
X21894800Y-88950800D03*
%TD*%
%TO.C,J15*%
X39801800Y-120015000D03*
%TD*%
%TO.C,J14*%
X39801800Y-126187200D03*
%TD*%
%TO.C,J13*%
X81408400Y-112699800D03*
%TD*%
%TO.C,J12*%
X81457800Y-106781600D03*
%TD*%
%TO.C,J11*%
X81229200Y-100787200D03*
%TD*%
%TO.C,J9*%
X81229200Y-88925400D03*
%TD*%
%TO.C,J8*%
X81229200Y-83337400D03*
%TD*%
%TO.C,J7*%
X81229200Y-76174600D03*
%TD*%
%TO.C,J5*%
X81229200Y-69469000D03*
%TD*%
%TO.C,J4*%
X81229200Y-63423800D03*
%TD*%
%TO.C,J3*%
X81229200Y-56997600D03*
%TD*%
%TO.C,J2*%
X81229200Y-50876200D03*
%TD*%
%TO.C,J1*%
X81229200Y-44272200D03*
%TD*%
%TO.C,J49*%
X89331800Y-119227600D03*
%TD*%
%TO.C,J48*%
X57480200Y-24282400D03*
%TD*%
%TO.C,J47*%
X49267534Y-24282400D03*
%TD*%
%TO.C,J46*%
X53373867Y-24282400D03*
%TD*%
%TO.C,J45*%
X61586534Y-24282400D03*
%TD*%
%TO.C,J44*%
X21894800Y-24282400D03*
%TD*%
%TO.C,J43*%
X21894800Y-30327600D03*
%TD*%
%TO.C,J42*%
X21894800Y-36372800D03*
%TD*%
%TO.C,J41*%
X21894800Y-42519600D03*
%TD*%
%TO.C,J40*%
X21894800Y-106756200D03*
%TD*%
%TO.C,J39*%
X21894800Y-101041200D03*
%TD*%
%TO.C,J38*%
X21894800Y-95046800D03*
%TD*%
%TO.C,J10*%
X81229200Y-94869000D03*
%TD*%
%TO.C,J36*%
X21894800Y-82448400D03*
%TD*%
%TO.C,J35*%
X89331800Y-126187200D03*
%TD*%
%TO.C,J34*%
X89331800Y-151180800D03*
%TD*%
%TO.C,J33*%
X89331800Y-144830800D03*
%TD*%
%TO.C,J32*%
X89331800Y-132181600D03*
%TD*%
%TO.C,J31*%
X89331800Y-138658600D03*
%TD*%
%TO.C,J30*%
X89331800Y-112699800D03*
%TD*%
%TO.C,J29*%
X89331800Y-106781600D03*
%TD*%
%TO.C,J28*%
X89331800Y-100787200D03*
%TD*%
%TO.C,J27*%
X89331800Y-94869000D03*
%TD*%
%TO.C,J26*%
X89331800Y-88925400D03*
%TD*%
%TO.C,J25*%
X89331800Y-83337400D03*
%TD*%
D13*
%TO.C,R12*%
X63446400Y-88925400D03*
X66446400Y-88925400D03*
%TD*%
%TO.C,R11*%
X63828800Y-112699800D03*
X66828800Y-112699800D03*
%TD*%
%TO.C,R10*%
X63852800Y-106781600D03*
X66852800Y-106781600D03*
%TD*%
%TO.C,R9*%
X63700400Y-100787200D03*
X66700400Y-100787200D03*
%TD*%
%TO.C,R8*%
X63446400Y-94869000D03*
X66446400Y-94869000D03*
%TD*%
%TO.C,R7*%
X63370200Y-83337400D03*
X66370200Y-83337400D03*
%TD*%
%TO.C,R6*%
X63268600Y-76174600D03*
X66268600Y-76174600D03*
%TD*%
%TO.C,R5*%
X63294000Y-69469000D03*
X66294000Y-69469000D03*
%TD*%
%TO.C,R4*%
X63370200Y-63423800D03*
X66370200Y-63423800D03*
%TD*%
%TO.C,R2*%
X63700400Y-50876200D03*
X66700400Y-50876200D03*
%TD*%
%TO.C,R1*%
X63624200Y-45364400D03*
X66624200Y-45364400D03*
%TD*%
%TO.C,R3*%
X63522600Y-56997600D03*
X66522600Y-56997600D03*
%TD*%
D14*
%TO.C,Q12*%
X72470600Y-113969800D03*
D15*
X72470600Y-112699800D03*
X72470600Y-111429800D03*
%TD*%
D14*
%TO.C,Q11*%
X72337800Y-108051600D03*
D15*
X72337800Y-106781600D03*
X72337800Y-105511600D03*
%TD*%
D14*
%TO.C,Q10*%
X72261600Y-102057200D03*
D15*
X72261600Y-100787200D03*
X72261600Y-99517200D03*
%TD*%
D14*
%TO.C,Q9*%
X72113600Y-96139000D03*
D15*
X72113600Y-94869000D03*
X72113600Y-93599000D03*
%TD*%
D14*
%TO.C,Q8*%
X72113600Y-90195400D03*
D15*
X72113600Y-88925400D03*
X72113600Y-87655400D03*
%TD*%
D14*
%TO.C,Q7*%
X72113600Y-84607400D03*
D15*
X72113600Y-83337400D03*
X72113600Y-82067400D03*
%TD*%
D14*
%TO.C,Q6*%
X72109200Y-77444600D03*
D15*
X72109200Y-76174600D03*
X72109200Y-74904600D03*
%TD*%
D14*
%TO.C,Q5*%
X72113600Y-70739000D03*
D15*
X72113600Y-69469000D03*
X72113600Y-68199000D03*
%TD*%
D14*
%TO.C,Q4*%
X72113600Y-64693800D03*
D15*
X72113600Y-63423800D03*
X72113600Y-62153800D03*
%TD*%
D14*
%TO.C,Q3*%
X71935800Y-58267600D03*
D15*
X71935800Y-56997600D03*
X71935800Y-55727600D03*
%TD*%
D14*
%TO.C,Q2*%
X71935800Y-52146200D03*
D15*
X71935800Y-50876200D03*
X71935800Y-49606200D03*
%TD*%
D14*
%TO.C,Q1*%
X71783400Y-46024800D03*
D15*
X71783400Y-44754800D03*
X71783400Y-43484800D03*
%TD*%
M02*
