%TF.GenerationSoftware,KiCad,Pcbnew,(6.0.4)*%
%TF.CreationDate,2022-07-16T18:17:00-05:00*%
%TF.ProjectId,macro_controller,6d616372-6f5f-4636-9f6e-74726f6c6c65,rev?*%
%TF.SameCoordinates,Original*%
%TF.FileFunction,Legend,Top*%
%TF.FilePolarity,Positive*%
%FSLAX46Y46*%
G04 Gerber Fmt 4.6, Leading zero omitted, Abs format (unit mm)*
G04 Created by KiCad (PCBNEW (6.0.4)) date 2022-07-16 18:17:00*
%MOMM*%
%LPD*%
G01*
G04 APERTURE LIST*
%ADD10C,0.300000*%
%ADD11C,0.150000*%
%ADD12C,0.120000*%
G04 APERTURE END LIST*
D10*
X52166057Y-165442257D02*
X52237485Y-165227971D01*
X52308914Y-165156542D01*
X52451771Y-165085114D01*
X52666057Y-165085114D01*
X52808914Y-165156542D01*
X52880342Y-165227971D01*
X52951771Y-165370828D01*
X52951771Y-165942257D01*
X51451771Y-165942257D01*
X51451771Y-165442257D01*
X51523200Y-165299400D01*
X51594628Y-165227971D01*
X51737485Y-165156542D01*
X51880342Y-165156542D01*
X52023200Y-165227971D01*
X52094628Y-165299400D01*
X52166057Y-165442257D01*
X52166057Y-165942257D01*
X52951771Y-164442257D02*
X51951771Y-164442257D01*
X52237485Y-164442257D02*
X52094628Y-164370828D01*
X52023200Y-164299400D01*
X51951771Y-164156542D01*
X51951771Y-164013685D01*
X52951771Y-163299400D02*
X52880342Y-163442257D01*
X52808914Y-163513685D01*
X52666057Y-163585114D01*
X52237485Y-163585114D01*
X52094628Y-163513685D01*
X52023200Y-163442257D01*
X51951771Y-163299400D01*
X51951771Y-163085114D01*
X52023200Y-162942257D01*
X52094628Y-162870828D01*
X52237485Y-162799400D01*
X52666057Y-162799400D01*
X52808914Y-162870828D01*
X52880342Y-162942257D01*
X52951771Y-163085114D01*
X52951771Y-163299400D01*
X52951771Y-161942257D02*
X52880342Y-162085114D01*
X52808914Y-162156542D01*
X52666057Y-162227971D01*
X52237485Y-162227971D01*
X52094628Y-162156542D01*
X52023200Y-162085114D01*
X51951771Y-161942257D01*
X51951771Y-161727971D01*
X52023200Y-161585114D01*
X52094628Y-161513685D01*
X52237485Y-161442257D01*
X52666057Y-161442257D01*
X52808914Y-161513685D01*
X52880342Y-161585114D01*
X52951771Y-161727971D01*
X52951771Y-161942257D01*
X52951771Y-160799400D02*
X51451771Y-160799400D01*
X52380342Y-160656542D02*
X52951771Y-160227971D01*
X51951771Y-160227971D02*
X52523200Y-160799400D01*
X52951771Y-158442257D02*
X51451771Y-158442257D01*
X51451771Y-157870828D01*
X51523200Y-157727971D01*
X51594628Y-157656542D01*
X51737485Y-157585114D01*
X51951771Y-157585114D01*
X52094628Y-157656542D01*
X52166057Y-157727971D01*
X52237485Y-157870828D01*
X52237485Y-158442257D01*
X52808914Y-156085114D02*
X52880342Y-156156542D01*
X52951771Y-156370828D01*
X52951771Y-156513685D01*
X52880342Y-156727971D01*
X52737485Y-156870828D01*
X52594628Y-156942257D01*
X52308914Y-157013685D01*
X52094628Y-157013685D01*
X51808914Y-156942257D01*
X51666057Y-156870828D01*
X51523200Y-156727971D01*
X51451771Y-156513685D01*
X51451771Y-156370828D01*
X51523200Y-156156542D01*
X51594628Y-156085114D01*
X52166057Y-154942257D02*
X52237485Y-154727971D01*
X52308914Y-154656542D01*
X52451771Y-154585114D01*
X52666057Y-154585114D01*
X52808914Y-154656542D01*
X52880342Y-154727971D01*
X52951771Y-154870828D01*
X52951771Y-155442257D01*
X51451771Y-155442257D01*
X51451771Y-154942257D01*
X51523200Y-154799400D01*
X51594628Y-154727971D01*
X51737485Y-154656542D01*
X51880342Y-154656542D01*
X52023200Y-154727971D01*
X52094628Y-154799400D01*
X52166057Y-154942257D01*
X52166057Y-155442257D01*
D11*
X29489400Y-140131800D02*
X70586600Y-140131800D01*
X70586600Y-140131800D02*
X70586600Y-181965600D01*
X70586600Y-181965600D02*
X29489400Y-181965600D01*
X29489400Y-181965600D02*
X29489400Y-140131800D01*
X40152580Y-85219419D02*
X39676390Y-85552752D01*
X40152580Y-85790847D02*
X39152580Y-85790847D01*
X39152580Y-85409895D01*
X39200200Y-85314657D01*
X39247819Y-85267038D01*
X39343057Y-85219419D01*
X39485914Y-85219419D01*
X39581152Y-85267038D01*
X39628771Y-85314657D01*
X39676390Y-85409895D01*
X39676390Y-85790847D01*
X40152580Y-84362276D02*
X39628771Y-84362276D01*
X39533533Y-84409895D01*
X39485914Y-84505133D01*
X39485914Y-84695609D01*
X39533533Y-84790847D01*
X40104961Y-84362276D02*
X40152580Y-84457514D01*
X40152580Y-84695609D01*
X40104961Y-84790847D01*
X40009723Y-84838466D01*
X39914485Y-84838466D01*
X39819247Y-84790847D01*
X39771628Y-84695609D01*
X39771628Y-84457514D01*
X39724009Y-84362276D01*
X40104961Y-83933704D02*
X40152580Y-83838466D01*
X40152580Y-83647990D01*
X40104961Y-83552752D01*
X40009723Y-83505133D01*
X39962104Y-83505133D01*
X39866866Y-83552752D01*
X39819247Y-83647990D01*
X39819247Y-83790847D01*
X39771628Y-83886085D01*
X39676390Y-83933704D01*
X39628771Y-83933704D01*
X39533533Y-83886085D01*
X39485914Y-83790847D01*
X39485914Y-83647990D01*
X39533533Y-83552752D01*
X39485914Y-83076561D02*
X40485914Y-83076561D01*
X39533533Y-83076561D02*
X39485914Y-82981323D01*
X39485914Y-82790847D01*
X39533533Y-82695609D01*
X39581152Y-82647990D01*
X39676390Y-82600371D01*
X39962104Y-82600371D01*
X40057342Y-82647990D01*
X40104961Y-82695609D01*
X40152580Y-82790847D01*
X40152580Y-82981323D01*
X40104961Y-83076561D01*
X40152580Y-82171800D02*
X39152580Y-82171800D01*
X39533533Y-82171800D02*
X39485914Y-82076561D01*
X39485914Y-81886085D01*
X39533533Y-81790847D01*
X39581152Y-81743228D01*
X39676390Y-81695609D01*
X39962104Y-81695609D01*
X40057342Y-81743228D01*
X40104961Y-81790847D01*
X40152580Y-81886085D01*
X40152580Y-82076561D01*
X40104961Y-82171800D01*
X40104961Y-80886085D02*
X40152580Y-80981323D01*
X40152580Y-81171800D01*
X40104961Y-81267038D01*
X40009723Y-81314657D01*
X39628771Y-81314657D01*
X39533533Y-81267038D01*
X39485914Y-81171800D01*
X39485914Y-80981323D01*
X39533533Y-80886085D01*
X39628771Y-80838466D01*
X39724009Y-80838466D01*
X39819247Y-81314657D01*
X40152580Y-80409895D02*
X39485914Y-80409895D01*
X39676390Y-80409895D02*
X39581152Y-80362276D01*
X39533533Y-80314657D01*
X39485914Y-80219419D01*
X39485914Y-80124180D01*
X40152580Y-79790847D02*
X39485914Y-79790847D01*
X39676390Y-79790847D02*
X39581152Y-79743228D01*
X39533533Y-79695609D01*
X39485914Y-79600371D01*
X39485914Y-79505133D01*
X39485914Y-79267038D02*
X40152580Y-79028942D01*
X39485914Y-78790847D02*
X40152580Y-79028942D01*
X40390676Y-79124180D01*
X40438295Y-79171800D01*
X40485914Y-79267038D01*
X40152580Y-77647990D02*
X39152580Y-77647990D01*
X39152580Y-77267038D01*
X39200200Y-77171800D01*
X39247819Y-77124180D01*
X39343057Y-77076561D01*
X39485914Y-77076561D01*
X39581152Y-77124180D01*
X39628771Y-77171800D01*
X39676390Y-77267038D01*
X39676390Y-77647990D01*
X40152580Y-76647990D02*
X39485914Y-76647990D01*
X39152580Y-76647990D02*
X39200200Y-76695609D01*
X39247819Y-76647990D01*
X39200200Y-76600371D01*
X39152580Y-76647990D01*
X39247819Y-76647990D01*
X39152580Y-75505133D02*
X39152580Y-74838466D01*
X40152580Y-75505133D01*
X40152580Y-74838466D01*
X40104961Y-74076561D02*
X40152580Y-74171800D01*
X40152580Y-74362276D01*
X40104961Y-74457514D01*
X40009723Y-74505133D01*
X39628771Y-74505133D01*
X39533533Y-74457514D01*
X39485914Y-74362276D01*
X39485914Y-74171800D01*
X39533533Y-74076561D01*
X39628771Y-74028942D01*
X39724009Y-74028942D01*
X39819247Y-74505133D01*
X40152580Y-73600371D02*
X39485914Y-73600371D01*
X39676390Y-73600371D02*
X39581152Y-73552752D01*
X39533533Y-73505133D01*
X39485914Y-73409895D01*
X39485914Y-73314657D01*
X40152580Y-72838466D02*
X40104961Y-72933704D01*
X40057342Y-72981323D01*
X39962104Y-73028942D01*
X39676390Y-73028942D01*
X39581152Y-72981323D01*
X39533533Y-72933704D01*
X39485914Y-72838466D01*
X39485914Y-72695609D01*
X39533533Y-72600371D01*
X39581152Y-72552752D01*
X39676390Y-72505133D01*
X39962104Y-72505133D01*
X40057342Y-72552752D01*
X40104961Y-72600371D01*
X40152580Y-72695609D01*
X40152580Y-72838466D01*
X58191400Y-47853600D02*
X26543000Y-47853600D01*
X26543000Y-47853600D02*
X26543000Y-113919000D01*
X26543000Y-113919000D02*
X58191400Y-113919000D01*
X58191400Y-113919000D02*
X58191400Y-47853600D01*
%TO.C,J6*%
X53762266Y-53413780D02*
X53762266Y-54128066D01*
X53714647Y-54270923D01*
X53619409Y-54366161D01*
X53476552Y-54413780D01*
X53381314Y-54413780D01*
X54667028Y-53413780D02*
X54476552Y-53413780D01*
X54381314Y-53461400D01*
X54333695Y-53509019D01*
X54238457Y-53651876D01*
X54190838Y-53842352D01*
X54190838Y-54223304D01*
X54238457Y-54318542D01*
X54286076Y-54366161D01*
X54381314Y-54413780D01*
X54571790Y-54413780D01*
X54667028Y-54366161D01*
X54714647Y-54318542D01*
X54762266Y-54223304D01*
X54762266Y-53985209D01*
X54714647Y-53889971D01*
X54667028Y-53842352D01*
X54571790Y-53794733D01*
X54381314Y-53794733D01*
X54286076Y-53842352D01*
X54238457Y-53889971D01*
X54190838Y-53985209D01*
%TO.C,J24*%
X88522276Y-73376980D02*
X88522276Y-74091266D01*
X88474657Y-74234123D01*
X88379419Y-74329361D01*
X88236561Y-74376980D01*
X88141323Y-74376980D01*
X88950847Y-73472219D02*
X88998466Y-73424600D01*
X89093704Y-73376980D01*
X89331800Y-73376980D01*
X89427038Y-73424600D01*
X89474657Y-73472219D01*
X89522276Y-73567457D01*
X89522276Y-73662695D01*
X89474657Y-73805552D01*
X88903228Y-74376980D01*
X89522276Y-74376980D01*
X90379419Y-73710314D02*
X90379419Y-74376980D01*
X90141323Y-73329361D02*
X89903228Y-74043647D01*
X90522276Y-74043647D01*
%TO.C,J23*%
X88522276Y-66671380D02*
X88522276Y-67385666D01*
X88474657Y-67528523D01*
X88379419Y-67623761D01*
X88236561Y-67671380D01*
X88141323Y-67671380D01*
X88950847Y-66766619D02*
X88998466Y-66719000D01*
X89093704Y-66671380D01*
X89331800Y-66671380D01*
X89427038Y-66719000D01*
X89474657Y-66766619D01*
X89522276Y-66861857D01*
X89522276Y-66957095D01*
X89474657Y-67099952D01*
X88903228Y-67671380D01*
X89522276Y-67671380D01*
X89855609Y-66671380D02*
X90474657Y-66671380D01*
X90141323Y-67052333D01*
X90284180Y-67052333D01*
X90379419Y-67099952D01*
X90427038Y-67147571D01*
X90474657Y-67242809D01*
X90474657Y-67480904D01*
X90427038Y-67576142D01*
X90379419Y-67623761D01*
X90284180Y-67671380D01*
X89998466Y-67671380D01*
X89903228Y-67623761D01*
X89855609Y-67576142D01*
%TO.C,J22*%
X88522276Y-60626180D02*
X88522276Y-61340466D01*
X88474657Y-61483323D01*
X88379419Y-61578561D01*
X88236561Y-61626180D01*
X88141323Y-61626180D01*
X88950847Y-60721419D02*
X88998466Y-60673800D01*
X89093704Y-60626180D01*
X89331800Y-60626180D01*
X89427038Y-60673800D01*
X89474657Y-60721419D01*
X89522276Y-60816657D01*
X89522276Y-60911895D01*
X89474657Y-61054752D01*
X88903228Y-61626180D01*
X89522276Y-61626180D01*
X89903228Y-60721419D02*
X89950847Y-60673800D01*
X90046085Y-60626180D01*
X90284180Y-60626180D01*
X90379419Y-60673800D01*
X90427038Y-60721419D01*
X90474657Y-60816657D01*
X90474657Y-60911895D01*
X90427038Y-61054752D01*
X89855609Y-61626180D01*
X90474657Y-61626180D01*
%TO.C,J21*%
X88522276Y-50785780D02*
X88522276Y-51500066D01*
X88474657Y-51642923D01*
X88379419Y-51738161D01*
X88236561Y-51785780D01*
X88141323Y-51785780D01*
X88950847Y-50881019D02*
X88998466Y-50833400D01*
X89093704Y-50785780D01*
X89331800Y-50785780D01*
X89427038Y-50833400D01*
X89474657Y-50881019D01*
X89522276Y-50976257D01*
X89522276Y-51071495D01*
X89474657Y-51214352D01*
X88903228Y-51785780D01*
X89522276Y-51785780D01*
X90474657Y-51785780D02*
X89903228Y-51785780D01*
X90188942Y-51785780D02*
X90188942Y-50785780D01*
X90093704Y-50928638D01*
X89998466Y-51023876D01*
X89903228Y-51071495D01*
%TO.C,J20*%
X88522276Y-48078580D02*
X88522276Y-48792866D01*
X88474657Y-48935723D01*
X88379419Y-49030961D01*
X88236561Y-49078580D01*
X88141323Y-49078580D01*
X88950847Y-48173819D02*
X88998466Y-48126200D01*
X89093704Y-48078580D01*
X89331800Y-48078580D01*
X89427038Y-48126200D01*
X89474657Y-48173819D01*
X89522276Y-48269057D01*
X89522276Y-48364295D01*
X89474657Y-48507152D01*
X88903228Y-49078580D01*
X89522276Y-49078580D01*
X90141323Y-48078580D02*
X90236561Y-48078580D01*
X90331800Y-48126200D01*
X90379419Y-48173819D01*
X90427038Y-48269057D01*
X90474657Y-48459533D01*
X90474657Y-48697628D01*
X90427038Y-48888104D01*
X90379419Y-48983342D01*
X90331800Y-49030961D01*
X90236561Y-49078580D01*
X90141323Y-49078580D01*
X90046085Y-49030961D01*
X89998466Y-48983342D01*
X89950847Y-48888104D01*
X89903228Y-48697628D01*
X89903228Y-48459533D01*
X89950847Y-48269057D01*
X89998466Y-48173819D01*
X90046085Y-48126200D01*
X90141323Y-48078580D01*
%TO.C,J19*%
X88522276Y-41474580D02*
X88522276Y-42188866D01*
X88474657Y-42331723D01*
X88379419Y-42426961D01*
X88236561Y-42474580D01*
X88141323Y-42474580D01*
X89522276Y-42474580D02*
X88950847Y-42474580D01*
X89236561Y-42474580D02*
X89236561Y-41474580D01*
X89141323Y-41617438D01*
X89046085Y-41712676D01*
X88950847Y-41760295D01*
X89998466Y-42474580D02*
X90188942Y-42474580D01*
X90284180Y-42426961D01*
X90331800Y-42379342D01*
X90427038Y-42236485D01*
X90474657Y-42046009D01*
X90474657Y-41665057D01*
X90427038Y-41569819D01*
X90379419Y-41522200D01*
X90284180Y-41474580D01*
X90093704Y-41474580D01*
X89998466Y-41522200D01*
X89950847Y-41569819D01*
X89903228Y-41665057D01*
X89903228Y-41903152D01*
X89950847Y-41998390D01*
X89998466Y-42046009D01*
X90093704Y-42093628D01*
X90284180Y-42093628D01*
X90379419Y-42046009D01*
X90427038Y-41998390D01*
X90474657Y-41903152D01*
%TO.C,J18*%
X29238676Y-117217380D02*
X29238676Y-117931666D01*
X29191057Y-118074523D01*
X29095819Y-118169761D01*
X28952961Y-118217380D01*
X28857723Y-118217380D01*
X30238676Y-118217380D02*
X29667247Y-118217380D01*
X29952961Y-118217380D02*
X29952961Y-117217380D01*
X29857723Y-117360238D01*
X29762485Y-117455476D01*
X29667247Y-117503095D01*
X30810104Y-117645952D02*
X30714866Y-117598333D01*
X30667247Y-117550714D01*
X30619628Y-117455476D01*
X30619628Y-117407857D01*
X30667247Y-117312619D01*
X30714866Y-117265000D01*
X30810104Y-117217380D01*
X31000580Y-117217380D01*
X31095819Y-117265000D01*
X31143438Y-117312619D01*
X31191057Y-117407857D01*
X31191057Y-117455476D01*
X31143438Y-117550714D01*
X31095819Y-117598333D01*
X31000580Y-117645952D01*
X30810104Y-117645952D01*
X30714866Y-117693571D01*
X30667247Y-117741190D01*
X30619628Y-117836428D01*
X30619628Y-118026904D01*
X30667247Y-118122142D01*
X30714866Y-118169761D01*
X30810104Y-118217380D01*
X31000580Y-118217380D01*
X31095819Y-118169761D01*
X31143438Y-118122142D01*
X31191057Y-118026904D01*
X31191057Y-117836428D01*
X31143438Y-117741190D01*
X31095819Y-117693571D01*
X31000580Y-117645952D01*
%TO.C,J17*%
X29238676Y-130425380D02*
X29238676Y-131139666D01*
X29191057Y-131282523D01*
X29095819Y-131377761D01*
X28952961Y-131425380D01*
X28857723Y-131425380D01*
X30238676Y-131425380D02*
X29667247Y-131425380D01*
X29952961Y-131425380D02*
X29952961Y-130425380D01*
X29857723Y-130568238D01*
X29762485Y-130663476D01*
X29667247Y-130711095D01*
X30572009Y-130425380D02*
X31238676Y-130425380D01*
X30810104Y-131425380D01*
%TO.C,J16*%
X29238676Y-123389580D02*
X29238676Y-124103866D01*
X29191057Y-124246723D01*
X29095819Y-124341961D01*
X28952961Y-124389580D01*
X28857723Y-124389580D01*
X30238676Y-124389580D02*
X29667247Y-124389580D01*
X29952961Y-124389580D02*
X29952961Y-123389580D01*
X29857723Y-123532438D01*
X29762485Y-123627676D01*
X29667247Y-123675295D01*
X31095819Y-123389580D02*
X30905342Y-123389580D01*
X30810104Y-123437200D01*
X30762485Y-123484819D01*
X30667247Y-123627676D01*
X30619628Y-123818152D01*
X30619628Y-124199104D01*
X30667247Y-124294342D01*
X30714866Y-124341961D01*
X30810104Y-124389580D01*
X31000580Y-124389580D01*
X31095819Y-124341961D01*
X31143438Y-124294342D01*
X31191057Y-124199104D01*
X31191057Y-123961009D01*
X31143438Y-123865771D01*
X31095819Y-123818152D01*
X31000580Y-123770533D01*
X30810104Y-123770533D01*
X30714866Y-123818152D01*
X30667247Y-123865771D01*
X30619628Y-123961009D01*
%TO.C,J37*%
X21085276Y-86153180D02*
X21085276Y-86867466D01*
X21037657Y-87010323D01*
X20942419Y-87105561D01*
X20799561Y-87153180D01*
X20704323Y-87153180D01*
X21466228Y-86153180D02*
X22085276Y-86153180D01*
X21751942Y-86534133D01*
X21894800Y-86534133D01*
X21990038Y-86581752D01*
X22037657Y-86629371D01*
X22085276Y-86724609D01*
X22085276Y-86962704D01*
X22037657Y-87057942D01*
X21990038Y-87105561D01*
X21894800Y-87153180D01*
X21609085Y-87153180D01*
X21513847Y-87105561D01*
X21466228Y-87057942D01*
X22418609Y-86153180D02*
X23085276Y-86153180D01*
X22656704Y-87153180D01*
%TO.C,J15*%
X38992276Y-117217380D02*
X38992276Y-117931666D01*
X38944657Y-118074523D01*
X38849419Y-118169761D01*
X38706561Y-118217380D01*
X38611323Y-118217380D01*
X39992276Y-118217380D02*
X39420847Y-118217380D01*
X39706561Y-118217380D02*
X39706561Y-117217380D01*
X39611323Y-117360238D01*
X39516085Y-117455476D01*
X39420847Y-117503095D01*
X40897038Y-117217380D02*
X40420847Y-117217380D01*
X40373228Y-117693571D01*
X40420847Y-117645952D01*
X40516085Y-117598333D01*
X40754180Y-117598333D01*
X40849419Y-117645952D01*
X40897038Y-117693571D01*
X40944657Y-117788809D01*
X40944657Y-118026904D01*
X40897038Y-118122142D01*
X40849419Y-118169761D01*
X40754180Y-118217380D01*
X40516085Y-118217380D01*
X40420847Y-118169761D01*
X40373228Y-118122142D01*
%TO.C,J14*%
X38992276Y-123389580D02*
X38992276Y-124103866D01*
X38944657Y-124246723D01*
X38849419Y-124341961D01*
X38706561Y-124389580D01*
X38611323Y-124389580D01*
X39992276Y-124389580D02*
X39420847Y-124389580D01*
X39706561Y-124389580D02*
X39706561Y-123389580D01*
X39611323Y-123532438D01*
X39516085Y-123627676D01*
X39420847Y-123675295D01*
X40849419Y-123722914D02*
X40849419Y-124389580D01*
X40611323Y-123341961D02*
X40373228Y-124056247D01*
X40992276Y-124056247D01*
%TO.C,J13*%
X80598876Y-109902180D02*
X80598876Y-110616466D01*
X80551257Y-110759323D01*
X80456019Y-110854561D01*
X80313161Y-110902180D01*
X80217923Y-110902180D01*
X81598876Y-110902180D02*
X81027447Y-110902180D01*
X81313161Y-110902180D02*
X81313161Y-109902180D01*
X81217923Y-110045038D01*
X81122685Y-110140276D01*
X81027447Y-110187895D01*
X81932209Y-109902180D02*
X82551257Y-109902180D01*
X82217923Y-110283133D01*
X82360780Y-110283133D01*
X82456019Y-110330752D01*
X82503638Y-110378371D01*
X82551257Y-110473609D01*
X82551257Y-110711704D01*
X82503638Y-110806942D01*
X82456019Y-110854561D01*
X82360780Y-110902180D01*
X82075066Y-110902180D01*
X81979828Y-110854561D01*
X81932209Y-110806942D01*
%TO.C,J12*%
X80648276Y-103983980D02*
X80648276Y-104698266D01*
X80600657Y-104841123D01*
X80505419Y-104936361D01*
X80362561Y-104983980D01*
X80267323Y-104983980D01*
X81648276Y-104983980D02*
X81076847Y-104983980D01*
X81362561Y-104983980D02*
X81362561Y-103983980D01*
X81267323Y-104126838D01*
X81172085Y-104222076D01*
X81076847Y-104269695D01*
X82029228Y-104079219D02*
X82076847Y-104031600D01*
X82172085Y-103983980D01*
X82410180Y-103983980D01*
X82505419Y-104031600D01*
X82553038Y-104079219D01*
X82600657Y-104174457D01*
X82600657Y-104269695D01*
X82553038Y-104412552D01*
X81981609Y-104983980D01*
X82600657Y-104983980D01*
%TO.C,J11*%
X80419676Y-97989580D02*
X80419676Y-98703866D01*
X80372057Y-98846723D01*
X80276819Y-98941961D01*
X80133961Y-98989580D01*
X80038723Y-98989580D01*
X81419676Y-98989580D02*
X80848247Y-98989580D01*
X81133961Y-98989580D02*
X81133961Y-97989580D01*
X81038723Y-98132438D01*
X80943485Y-98227676D01*
X80848247Y-98275295D01*
X82372057Y-98989580D02*
X81800628Y-98989580D01*
X82086342Y-98989580D02*
X82086342Y-97989580D01*
X81991104Y-98132438D01*
X81895866Y-98227676D01*
X81800628Y-98275295D01*
%TO.C,J9*%
X80895866Y-86127780D02*
X80895866Y-86842066D01*
X80848247Y-86984923D01*
X80753009Y-87080161D01*
X80610152Y-87127780D01*
X80514914Y-87127780D01*
X81419676Y-87127780D02*
X81610152Y-87127780D01*
X81705390Y-87080161D01*
X81753009Y-87032542D01*
X81848247Y-86889685D01*
X81895866Y-86699209D01*
X81895866Y-86318257D01*
X81848247Y-86223019D01*
X81800628Y-86175400D01*
X81705390Y-86127780D01*
X81514914Y-86127780D01*
X81419676Y-86175400D01*
X81372057Y-86223019D01*
X81324438Y-86318257D01*
X81324438Y-86556352D01*
X81372057Y-86651590D01*
X81419676Y-86699209D01*
X81514914Y-86746828D01*
X81705390Y-86746828D01*
X81800628Y-86699209D01*
X81848247Y-86651590D01*
X81895866Y-86556352D01*
%TO.C,J8*%
X80895866Y-80539780D02*
X80895866Y-81254066D01*
X80848247Y-81396923D01*
X80753009Y-81492161D01*
X80610152Y-81539780D01*
X80514914Y-81539780D01*
X81514914Y-80968352D02*
X81419676Y-80920733D01*
X81372057Y-80873114D01*
X81324438Y-80777876D01*
X81324438Y-80730257D01*
X81372057Y-80635019D01*
X81419676Y-80587400D01*
X81514914Y-80539780D01*
X81705390Y-80539780D01*
X81800628Y-80587400D01*
X81848247Y-80635019D01*
X81895866Y-80730257D01*
X81895866Y-80777876D01*
X81848247Y-80873114D01*
X81800628Y-80920733D01*
X81705390Y-80968352D01*
X81514914Y-80968352D01*
X81419676Y-81015971D01*
X81372057Y-81063590D01*
X81324438Y-81158828D01*
X81324438Y-81349304D01*
X81372057Y-81444542D01*
X81419676Y-81492161D01*
X81514914Y-81539780D01*
X81705390Y-81539780D01*
X81800628Y-81492161D01*
X81848247Y-81444542D01*
X81895866Y-81349304D01*
X81895866Y-81158828D01*
X81848247Y-81063590D01*
X81800628Y-81015971D01*
X81705390Y-80968352D01*
%TO.C,J7*%
X80895866Y-73376980D02*
X80895866Y-74091266D01*
X80848247Y-74234123D01*
X80753009Y-74329361D01*
X80610152Y-74376980D01*
X80514914Y-74376980D01*
X81276819Y-73376980D02*
X81943485Y-73376980D01*
X81514914Y-74376980D01*
%TO.C,J5*%
X80895866Y-66671380D02*
X80895866Y-67385666D01*
X80848247Y-67528523D01*
X80753009Y-67623761D01*
X80610152Y-67671380D01*
X80514914Y-67671380D01*
X81848247Y-66671380D02*
X81372057Y-66671380D01*
X81324438Y-67147571D01*
X81372057Y-67099952D01*
X81467295Y-67052333D01*
X81705390Y-67052333D01*
X81800628Y-67099952D01*
X81848247Y-67147571D01*
X81895866Y-67242809D01*
X81895866Y-67480904D01*
X81848247Y-67576142D01*
X81800628Y-67623761D01*
X81705390Y-67671380D01*
X81467295Y-67671380D01*
X81372057Y-67623761D01*
X81324438Y-67576142D01*
%TO.C,J4*%
X80895866Y-60626180D02*
X80895866Y-61340466D01*
X80848247Y-61483323D01*
X80753009Y-61578561D01*
X80610152Y-61626180D01*
X80514914Y-61626180D01*
X81800628Y-60959514D02*
X81800628Y-61626180D01*
X81562533Y-60578561D02*
X81324438Y-61292847D01*
X81943485Y-61292847D01*
%TO.C,J3*%
X80895866Y-50328580D02*
X80895866Y-51042866D01*
X80848247Y-51185723D01*
X80753009Y-51280961D01*
X80610152Y-51328580D01*
X80514914Y-51328580D01*
X81276819Y-50328580D02*
X81895866Y-50328580D01*
X81562533Y-50709533D01*
X81705390Y-50709533D01*
X81800628Y-50757152D01*
X81848247Y-50804771D01*
X81895866Y-50900009D01*
X81895866Y-51138104D01*
X81848247Y-51233342D01*
X81800628Y-51280961D01*
X81705390Y-51328580D01*
X81419676Y-51328580D01*
X81324438Y-51280961D01*
X81276819Y-51233342D01*
%TO.C,J2*%
X80895866Y-48078580D02*
X80895866Y-48792866D01*
X80848247Y-48935723D01*
X80753009Y-49030961D01*
X80610152Y-49078580D01*
X80514914Y-49078580D01*
X81324438Y-48173819D02*
X81372057Y-48126200D01*
X81467295Y-48078580D01*
X81705390Y-48078580D01*
X81800628Y-48126200D01*
X81848247Y-48173819D01*
X81895866Y-48269057D01*
X81895866Y-48364295D01*
X81848247Y-48507152D01*
X81276819Y-49078580D01*
X81895866Y-49078580D01*
%TO.C,J1*%
X80895866Y-41474580D02*
X80895866Y-42188866D01*
X80848247Y-42331723D01*
X80753009Y-42426961D01*
X80610152Y-42474580D01*
X80514914Y-42474580D01*
X81895866Y-42474580D02*
X81324438Y-42474580D01*
X81610152Y-42474580D02*
X81610152Y-41474580D01*
X81514914Y-41617438D01*
X81419676Y-41712676D01*
X81324438Y-41760295D01*
%TO.C,J49*%
X88522276Y-116429980D02*
X88522276Y-117144266D01*
X88474657Y-117287123D01*
X88379419Y-117382361D01*
X88236561Y-117429980D01*
X88141323Y-117429980D01*
X89427038Y-116763314D02*
X89427038Y-117429980D01*
X89188942Y-116382361D02*
X88950847Y-117096647D01*
X89569895Y-117096647D01*
X89998466Y-117429980D02*
X90188942Y-117429980D01*
X90284180Y-117382361D01*
X90331800Y-117334742D01*
X90427038Y-117191885D01*
X90474657Y-117001409D01*
X90474657Y-116620457D01*
X90427038Y-116525219D01*
X90379419Y-116477600D01*
X90284180Y-116429980D01*
X90093704Y-116429980D01*
X89998466Y-116477600D01*
X89950847Y-116525219D01*
X89903228Y-116620457D01*
X89903228Y-116858552D01*
X89950847Y-116953790D01*
X89998466Y-117001409D01*
X90093704Y-117049028D01*
X90284180Y-117049028D01*
X90379419Y-117001409D01*
X90427038Y-116953790D01*
X90474657Y-116858552D01*
%TO.C,J48*%
X56670676Y-21484780D02*
X56670676Y-22199066D01*
X56623057Y-22341923D01*
X56527819Y-22437161D01*
X56384961Y-22484780D01*
X56289723Y-22484780D01*
X57575438Y-21818114D02*
X57575438Y-22484780D01*
X57337342Y-21437161D02*
X57099247Y-22151447D01*
X57718295Y-22151447D01*
X58242104Y-21913352D02*
X58146866Y-21865733D01*
X58099247Y-21818114D01*
X58051628Y-21722876D01*
X58051628Y-21675257D01*
X58099247Y-21580019D01*
X58146866Y-21532400D01*
X58242104Y-21484780D01*
X58432580Y-21484780D01*
X58527819Y-21532400D01*
X58575438Y-21580019D01*
X58623057Y-21675257D01*
X58623057Y-21722876D01*
X58575438Y-21818114D01*
X58527819Y-21865733D01*
X58432580Y-21913352D01*
X58242104Y-21913352D01*
X58146866Y-21960971D01*
X58099247Y-22008590D01*
X58051628Y-22103828D01*
X58051628Y-22294304D01*
X58099247Y-22389542D01*
X58146866Y-22437161D01*
X58242104Y-22484780D01*
X58432580Y-22484780D01*
X58527819Y-22437161D01*
X58575438Y-22389542D01*
X58623057Y-22294304D01*
X58623057Y-22103828D01*
X58575438Y-22008590D01*
X58527819Y-21960971D01*
X58432580Y-21913352D01*
%TO.C,J47*%
X48458010Y-21484780D02*
X48458010Y-22199066D01*
X48410391Y-22341923D01*
X48315153Y-22437161D01*
X48172295Y-22484780D01*
X48077057Y-22484780D01*
X49362772Y-21818114D02*
X49362772Y-22484780D01*
X49124676Y-21437161D02*
X48886581Y-22151447D01*
X49505629Y-22151447D01*
X49791343Y-21484780D02*
X50458010Y-21484780D01*
X50029438Y-22484780D01*
%TO.C,J46*%
X52564343Y-21484780D02*
X52564343Y-22199066D01*
X52516724Y-22341923D01*
X52421486Y-22437161D01*
X52278628Y-22484780D01*
X52183390Y-22484780D01*
X53469105Y-21818114D02*
X53469105Y-22484780D01*
X53231009Y-21437161D02*
X52992914Y-22151447D01*
X53611962Y-22151447D01*
X54421486Y-21484780D02*
X54231009Y-21484780D01*
X54135771Y-21532400D01*
X54088152Y-21580019D01*
X53992914Y-21722876D01*
X53945295Y-21913352D01*
X53945295Y-22294304D01*
X53992914Y-22389542D01*
X54040533Y-22437161D01*
X54135771Y-22484780D01*
X54326247Y-22484780D01*
X54421486Y-22437161D01*
X54469105Y-22389542D01*
X54516724Y-22294304D01*
X54516724Y-22056209D01*
X54469105Y-21960971D01*
X54421486Y-21913352D01*
X54326247Y-21865733D01*
X54135771Y-21865733D01*
X54040533Y-21913352D01*
X53992914Y-21960971D01*
X53945295Y-22056209D01*
%TO.C,J45*%
X60777010Y-21484780D02*
X60777010Y-22199066D01*
X60729391Y-22341923D01*
X60634153Y-22437161D01*
X60491295Y-22484780D01*
X60396057Y-22484780D01*
X61681772Y-21818114D02*
X61681772Y-22484780D01*
X61443676Y-21437161D02*
X61205581Y-22151447D01*
X61824629Y-22151447D01*
X62681772Y-21484780D02*
X62205581Y-21484780D01*
X62157962Y-21960971D01*
X62205581Y-21913352D01*
X62300819Y-21865733D01*
X62538914Y-21865733D01*
X62634153Y-21913352D01*
X62681772Y-21960971D01*
X62729391Y-22056209D01*
X62729391Y-22294304D01*
X62681772Y-22389542D01*
X62634153Y-22437161D01*
X62538914Y-22484780D01*
X62300819Y-22484780D01*
X62205581Y-22437161D01*
X62157962Y-22389542D01*
%TO.C,J44*%
X21085276Y-21484780D02*
X21085276Y-22199066D01*
X21037657Y-22341923D01*
X20942419Y-22437161D01*
X20799561Y-22484780D01*
X20704323Y-22484780D01*
X21990038Y-21818114D02*
X21990038Y-22484780D01*
X21751942Y-21437161D02*
X21513847Y-22151447D01*
X22132895Y-22151447D01*
X22942419Y-21818114D02*
X22942419Y-22484780D01*
X22704323Y-21437161D02*
X22466228Y-22151447D01*
X23085276Y-22151447D01*
%TO.C,J43*%
X21085276Y-27529980D02*
X21085276Y-28244266D01*
X21037657Y-28387123D01*
X20942419Y-28482361D01*
X20799561Y-28529980D01*
X20704323Y-28529980D01*
X21990038Y-27863314D02*
X21990038Y-28529980D01*
X21751942Y-27482361D02*
X21513847Y-28196647D01*
X22132895Y-28196647D01*
X22418609Y-27529980D02*
X23037657Y-27529980D01*
X22704323Y-27910933D01*
X22847180Y-27910933D01*
X22942419Y-27958552D01*
X22990038Y-28006171D01*
X23037657Y-28101409D01*
X23037657Y-28339504D01*
X22990038Y-28434742D01*
X22942419Y-28482361D01*
X22847180Y-28529980D01*
X22561466Y-28529980D01*
X22466228Y-28482361D01*
X22418609Y-28434742D01*
%TO.C,J42*%
X21085276Y-33575180D02*
X21085276Y-34289466D01*
X21037657Y-34432323D01*
X20942419Y-34527561D01*
X20799561Y-34575180D01*
X20704323Y-34575180D01*
X21990038Y-33908514D02*
X21990038Y-34575180D01*
X21751942Y-33527561D02*
X21513847Y-34241847D01*
X22132895Y-34241847D01*
X22466228Y-33670419D02*
X22513847Y-33622800D01*
X22609085Y-33575180D01*
X22847180Y-33575180D01*
X22942419Y-33622800D01*
X22990038Y-33670419D01*
X23037657Y-33765657D01*
X23037657Y-33860895D01*
X22990038Y-34003752D01*
X22418609Y-34575180D01*
X23037657Y-34575180D01*
%TO.C,J41*%
X21085276Y-39721980D02*
X21085276Y-40436266D01*
X21037657Y-40579123D01*
X20942419Y-40674361D01*
X20799561Y-40721980D01*
X20704323Y-40721980D01*
X21990038Y-40055314D02*
X21990038Y-40721980D01*
X21751942Y-39674361D02*
X21513847Y-40388647D01*
X22132895Y-40388647D01*
X23037657Y-40721980D02*
X22466228Y-40721980D01*
X22751942Y-40721980D02*
X22751942Y-39721980D01*
X22656704Y-39864838D01*
X22561466Y-39960076D01*
X22466228Y-40007695D01*
%TO.C,J40*%
X21085276Y-103958580D02*
X21085276Y-104672866D01*
X21037657Y-104815723D01*
X20942419Y-104910961D01*
X20799561Y-104958580D01*
X20704323Y-104958580D01*
X21990038Y-104291914D02*
X21990038Y-104958580D01*
X21751942Y-103910961D02*
X21513847Y-104625247D01*
X22132895Y-104625247D01*
X22704323Y-103958580D02*
X22799561Y-103958580D01*
X22894800Y-104006200D01*
X22942419Y-104053819D01*
X22990038Y-104149057D01*
X23037657Y-104339533D01*
X23037657Y-104577628D01*
X22990038Y-104768104D01*
X22942419Y-104863342D01*
X22894800Y-104910961D01*
X22799561Y-104958580D01*
X22704323Y-104958580D01*
X22609085Y-104910961D01*
X22561466Y-104863342D01*
X22513847Y-104768104D01*
X22466228Y-104577628D01*
X22466228Y-104339533D01*
X22513847Y-104149057D01*
X22561466Y-104053819D01*
X22609085Y-104006200D01*
X22704323Y-103958580D01*
%TO.C,J39*%
X21085276Y-98243580D02*
X21085276Y-98957866D01*
X21037657Y-99100723D01*
X20942419Y-99195961D01*
X20799561Y-99243580D01*
X20704323Y-99243580D01*
X21466228Y-98243580D02*
X22085276Y-98243580D01*
X21751942Y-98624533D01*
X21894800Y-98624533D01*
X21990038Y-98672152D01*
X22037657Y-98719771D01*
X22085276Y-98815009D01*
X22085276Y-99053104D01*
X22037657Y-99148342D01*
X21990038Y-99195961D01*
X21894800Y-99243580D01*
X21609085Y-99243580D01*
X21513847Y-99195961D01*
X21466228Y-99148342D01*
X22561466Y-99243580D02*
X22751942Y-99243580D01*
X22847180Y-99195961D01*
X22894800Y-99148342D01*
X22990038Y-99005485D01*
X23037657Y-98815009D01*
X23037657Y-98434057D01*
X22990038Y-98338819D01*
X22942419Y-98291200D01*
X22847180Y-98243580D01*
X22656704Y-98243580D01*
X22561466Y-98291200D01*
X22513847Y-98338819D01*
X22466228Y-98434057D01*
X22466228Y-98672152D01*
X22513847Y-98767390D01*
X22561466Y-98815009D01*
X22656704Y-98862628D01*
X22847180Y-98862628D01*
X22942419Y-98815009D01*
X22990038Y-98767390D01*
X23037657Y-98672152D01*
%TO.C,J38*%
X21085276Y-92249180D02*
X21085276Y-92963466D01*
X21037657Y-93106323D01*
X20942419Y-93201561D01*
X20799561Y-93249180D01*
X20704323Y-93249180D01*
X21466228Y-92249180D02*
X22085276Y-92249180D01*
X21751942Y-92630133D01*
X21894800Y-92630133D01*
X21990038Y-92677752D01*
X22037657Y-92725371D01*
X22085276Y-92820609D01*
X22085276Y-93058704D01*
X22037657Y-93153942D01*
X21990038Y-93201561D01*
X21894800Y-93249180D01*
X21609085Y-93249180D01*
X21513847Y-93201561D01*
X21466228Y-93153942D01*
X22656704Y-92677752D02*
X22561466Y-92630133D01*
X22513847Y-92582514D01*
X22466228Y-92487276D01*
X22466228Y-92439657D01*
X22513847Y-92344419D01*
X22561466Y-92296800D01*
X22656704Y-92249180D01*
X22847180Y-92249180D01*
X22942419Y-92296800D01*
X22990038Y-92344419D01*
X23037657Y-92439657D01*
X23037657Y-92487276D01*
X22990038Y-92582514D01*
X22942419Y-92630133D01*
X22847180Y-92677752D01*
X22656704Y-92677752D01*
X22561466Y-92725371D01*
X22513847Y-92772990D01*
X22466228Y-92868228D01*
X22466228Y-93058704D01*
X22513847Y-93153942D01*
X22561466Y-93201561D01*
X22656704Y-93249180D01*
X22847180Y-93249180D01*
X22942419Y-93201561D01*
X22990038Y-93153942D01*
X23037657Y-93058704D01*
X23037657Y-92868228D01*
X22990038Y-92772990D01*
X22942419Y-92725371D01*
X22847180Y-92677752D01*
%TO.C,J10*%
X80419676Y-92071380D02*
X80419676Y-92785666D01*
X80372057Y-92928523D01*
X80276819Y-93023761D01*
X80133961Y-93071380D01*
X80038723Y-93071380D01*
X81419676Y-93071380D02*
X80848247Y-93071380D01*
X81133961Y-93071380D02*
X81133961Y-92071380D01*
X81038723Y-92214238D01*
X80943485Y-92309476D01*
X80848247Y-92357095D01*
X82038723Y-92071380D02*
X82133961Y-92071380D01*
X82229200Y-92119000D01*
X82276819Y-92166619D01*
X82324438Y-92261857D01*
X82372057Y-92452333D01*
X82372057Y-92690428D01*
X82324438Y-92880904D01*
X82276819Y-92976142D01*
X82229200Y-93023761D01*
X82133961Y-93071380D01*
X82038723Y-93071380D01*
X81943485Y-93023761D01*
X81895866Y-92976142D01*
X81848247Y-92880904D01*
X81800628Y-92690428D01*
X81800628Y-92452333D01*
X81848247Y-92261857D01*
X81895866Y-92166619D01*
X81943485Y-92119000D01*
X82038723Y-92071380D01*
%TO.C,J36*%
X21085276Y-79650780D02*
X21085276Y-80365066D01*
X21037657Y-80507923D01*
X20942419Y-80603161D01*
X20799561Y-80650780D01*
X20704323Y-80650780D01*
X21466228Y-79650780D02*
X22085276Y-79650780D01*
X21751942Y-80031733D01*
X21894800Y-80031733D01*
X21990038Y-80079352D01*
X22037657Y-80126971D01*
X22085276Y-80222209D01*
X22085276Y-80460304D01*
X22037657Y-80555542D01*
X21990038Y-80603161D01*
X21894800Y-80650780D01*
X21609085Y-80650780D01*
X21513847Y-80603161D01*
X21466228Y-80555542D01*
X22942419Y-79650780D02*
X22751942Y-79650780D01*
X22656704Y-79698400D01*
X22609085Y-79746019D01*
X22513847Y-79888876D01*
X22466228Y-80079352D01*
X22466228Y-80460304D01*
X22513847Y-80555542D01*
X22561466Y-80603161D01*
X22656704Y-80650780D01*
X22847180Y-80650780D01*
X22942419Y-80603161D01*
X22990038Y-80555542D01*
X23037657Y-80460304D01*
X23037657Y-80222209D01*
X22990038Y-80126971D01*
X22942419Y-80079352D01*
X22847180Y-80031733D01*
X22656704Y-80031733D01*
X22561466Y-80079352D01*
X22513847Y-80126971D01*
X22466228Y-80222209D01*
%TO.C,J35*%
X88522276Y-123389580D02*
X88522276Y-124103866D01*
X88474657Y-124246723D01*
X88379419Y-124341961D01*
X88236561Y-124389580D01*
X88141323Y-124389580D01*
X88903228Y-123389580D02*
X89522276Y-123389580D01*
X89188942Y-123770533D01*
X89331800Y-123770533D01*
X89427038Y-123818152D01*
X89474657Y-123865771D01*
X89522276Y-123961009D01*
X89522276Y-124199104D01*
X89474657Y-124294342D01*
X89427038Y-124341961D01*
X89331800Y-124389580D01*
X89046085Y-124389580D01*
X88950847Y-124341961D01*
X88903228Y-124294342D01*
X90427038Y-123389580D02*
X89950847Y-123389580D01*
X89903228Y-123865771D01*
X89950847Y-123818152D01*
X90046085Y-123770533D01*
X90284180Y-123770533D01*
X90379419Y-123818152D01*
X90427038Y-123865771D01*
X90474657Y-123961009D01*
X90474657Y-124199104D01*
X90427038Y-124294342D01*
X90379419Y-124341961D01*
X90284180Y-124389580D01*
X90046085Y-124389580D01*
X89950847Y-124341961D01*
X89903228Y-124294342D01*
%TO.C,J34*%
X88522276Y-148383180D02*
X88522276Y-149097466D01*
X88474657Y-149240323D01*
X88379419Y-149335561D01*
X88236561Y-149383180D01*
X88141323Y-149383180D01*
X88903228Y-148383180D02*
X89522276Y-148383180D01*
X89188942Y-148764133D01*
X89331800Y-148764133D01*
X89427038Y-148811752D01*
X89474657Y-148859371D01*
X89522276Y-148954609D01*
X89522276Y-149192704D01*
X89474657Y-149287942D01*
X89427038Y-149335561D01*
X89331800Y-149383180D01*
X89046085Y-149383180D01*
X88950847Y-149335561D01*
X88903228Y-149287942D01*
X90379419Y-148716514D02*
X90379419Y-149383180D01*
X90141323Y-148335561D02*
X89903228Y-149049847D01*
X90522276Y-149049847D01*
%TO.C,J33*%
X88522276Y-142033180D02*
X88522276Y-142747466D01*
X88474657Y-142890323D01*
X88379419Y-142985561D01*
X88236561Y-143033180D01*
X88141323Y-143033180D01*
X88903228Y-142033180D02*
X89522276Y-142033180D01*
X89188942Y-142414133D01*
X89331800Y-142414133D01*
X89427038Y-142461752D01*
X89474657Y-142509371D01*
X89522276Y-142604609D01*
X89522276Y-142842704D01*
X89474657Y-142937942D01*
X89427038Y-142985561D01*
X89331800Y-143033180D01*
X89046085Y-143033180D01*
X88950847Y-142985561D01*
X88903228Y-142937942D01*
X89855609Y-142033180D02*
X90474657Y-142033180D01*
X90141323Y-142414133D01*
X90284180Y-142414133D01*
X90379419Y-142461752D01*
X90427038Y-142509371D01*
X90474657Y-142604609D01*
X90474657Y-142842704D01*
X90427038Y-142937942D01*
X90379419Y-142985561D01*
X90284180Y-143033180D01*
X89998466Y-143033180D01*
X89903228Y-142985561D01*
X89855609Y-142937942D01*
%TO.C,J32*%
X88522276Y-129383980D02*
X88522276Y-130098266D01*
X88474657Y-130241123D01*
X88379419Y-130336361D01*
X88236561Y-130383980D01*
X88141323Y-130383980D01*
X88903228Y-129383980D02*
X89522276Y-129383980D01*
X89188942Y-129764933D01*
X89331800Y-129764933D01*
X89427038Y-129812552D01*
X89474657Y-129860171D01*
X89522276Y-129955409D01*
X89522276Y-130193504D01*
X89474657Y-130288742D01*
X89427038Y-130336361D01*
X89331800Y-130383980D01*
X89046085Y-130383980D01*
X88950847Y-130336361D01*
X88903228Y-130288742D01*
X89903228Y-129479219D02*
X89950847Y-129431600D01*
X90046085Y-129383980D01*
X90284180Y-129383980D01*
X90379419Y-129431600D01*
X90427038Y-129479219D01*
X90474657Y-129574457D01*
X90474657Y-129669695D01*
X90427038Y-129812552D01*
X89855609Y-130383980D01*
X90474657Y-130383980D01*
%TO.C,J31*%
X88522276Y-135860980D02*
X88522276Y-136575266D01*
X88474657Y-136718123D01*
X88379419Y-136813361D01*
X88236561Y-136860980D01*
X88141323Y-136860980D01*
X88903228Y-135860980D02*
X89522276Y-135860980D01*
X89188942Y-136241933D01*
X89331800Y-136241933D01*
X89427038Y-136289552D01*
X89474657Y-136337171D01*
X89522276Y-136432409D01*
X89522276Y-136670504D01*
X89474657Y-136765742D01*
X89427038Y-136813361D01*
X89331800Y-136860980D01*
X89046085Y-136860980D01*
X88950847Y-136813361D01*
X88903228Y-136765742D01*
X90474657Y-136860980D02*
X89903228Y-136860980D01*
X90188942Y-136860980D02*
X90188942Y-135860980D01*
X90093704Y-136003838D01*
X89998466Y-136099076D01*
X89903228Y-136146695D01*
%TO.C,J30*%
X88522276Y-109902180D02*
X88522276Y-110616466D01*
X88474657Y-110759323D01*
X88379419Y-110854561D01*
X88236561Y-110902180D01*
X88141323Y-110902180D01*
X88903228Y-109902180D02*
X89522276Y-109902180D01*
X89188942Y-110283133D01*
X89331800Y-110283133D01*
X89427038Y-110330752D01*
X89474657Y-110378371D01*
X89522276Y-110473609D01*
X89522276Y-110711704D01*
X89474657Y-110806942D01*
X89427038Y-110854561D01*
X89331800Y-110902180D01*
X89046085Y-110902180D01*
X88950847Y-110854561D01*
X88903228Y-110806942D01*
X90141323Y-109902180D02*
X90236561Y-109902180D01*
X90331800Y-109949800D01*
X90379419Y-109997419D01*
X90427038Y-110092657D01*
X90474657Y-110283133D01*
X90474657Y-110521228D01*
X90427038Y-110711704D01*
X90379419Y-110806942D01*
X90331800Y-110854561D01*
X90236561Y-110902180D01*
X90141323Y-110902180D01*
X90046085Y-110854561D01*
X89998466Y-110806942D01*
X89950847Y-110711704D01*
X89903228Y-110521228D01*
X89903228Y-110283133D01*
X89950847Y-110092657D01*
X89998466Y-109997419D01*
X90046085Y-109949800D01*
X90141323Y-109902180D01*
%TO.C,J29*%
X88522276Y-103983980D02*
X88522276Y-104698266D01*
X88474657Y-104841123D01*
X88379419Y-104936361D01*
X88236561Y-104983980D01*
X88141323Y-104983980D01*
X88950847Y-104079219D02*
X88998466Y-104031600D01*
X89093704Y-103983980D01*
X89331800Y-103983980D01*
X89427038Y-104031600D01*
X89474657Y-104079219D01*
X89522276Y-104174457D01*
X89522276Y-104269695D01*
X89474657Y-104412552D01*
X88903228Y-104983980D01*
X89522276Y-104983980D01*
X89998466Y-104983980D02*
X90188942Y-104983980D01*
X90284180Y-104936361D01*
X90331800Y-104888742D01*
X90427038Y-104745885D01*
X90474657Y-104555409D01*
X90474657Y-104174457D01*
X90427038Y-104079219D01*
X90379419Y-104031600D01*
X90284180Y-103983980D01*
X90093704Y-103983980D01*
X89998466Y-104031600D01*
X89950847Y-104079219D01*
X89903228Y-104174457D01*
X89903228Y-104412552D01*
X89950847Y-104507790D01*
X89998466Y-104555409D01*
X90093704Y-104603028D01*
X90284180Y-104603028D01*
X90379419Y-104555409D01*
X90427038Y-104507790D01*
X90474657Y-104412552D01*
%TO.C,J28*%
X88522276Y-97989580D02*
X88522276Y-98703866D01*
X88474657Y-98846723D01*
X88379419Y-98941961D01*
X88236561Y-98989580D01*
X88141323Y-98989580D01*
X88950847Y-98084819D02*
X88998466Y-98037200D01*
X89093704Y-97989580D01*
X89331800Y-97989580D01*
X89427038Y-98037200D01*
X89474657Y-98084819D01*
X89522276Y-98180057D01*
X89522276Y-98275295D01*
X89474657Y-98418152D01*
X88903228Y-98989580D01*
X89522276Y-98989580D01*
X90093704Y-98418152D02*
X89998466Y-98370533D01*
X89950847Y-98322914D01*
X89903228Y-98227676D01*
X89903228Y-98180057D01*
X89950847Y-98084819D01*
X89998466Y-98037200D01*
X90093704Y-97989580D01*
X90284180Y-97989580D01*
X90379419Y-98037200D01*
X90427038Y-98084819D01*
X90474657Y-98180057D01*
X90474657Y-98227676D01*
X90427038Y-98322914D01*
X90379419Y-98370533D01*
X90284180Y-98418152D01*
X90093704Y-98418152D01*
X89998466Y-98465771D01*
X89950847Y-98513390D01*
X89903228Y-98608628D01*
X89903228Y-98799104D01*
X89950847Y-98894342D01*
X89998466Y-98941961D01*
X90093704Y-98989580D01*
X90284180Y-98989580D01*
X90379419Y-98941961D01*
X90427038Y-98894342D01*
X90474657Y-98799104D01*
X90474657Y-98608628D01*
X90427038Y-98513390D01*
X90379419Y-98465771D01*
X90284180Y-98418152D01*
%TO.C,J27*%
X88522276Y-92071380D02*
X88522276Y-92785666D01*
X88474657Y-92928523D01*
X88379419Y-93023761D01*
X88236561Y-93071380D01*
X88141323Y-93071380D01*
X88950847Y-92166619D02*
X88998466Y-92119000D01*
X89093704Y-92071380D01*
X89331800Y-92071380D01*
X89427038Y-92119000D01*
X89474657Y-92166619D01*
X89522276Y-92261857D01*
X89522276Y-92357095D01*
X89474657Y-92499952D01*
X88903228Y-93071380D01*
X89522276Y-93071380D01*
X89855609Y-92071380D02*
X90522276Y-92071380D01*
X90093704Y-93071380D01*
%TO.C,J26*%
X88522276Y-86127780D02*
X88522276Y-86842066D01*
X88474657Y-86984923D01*
X88379419Y-87080161D01*
X88236561Y-87127780D01*
X88141323Y-87127780D01*
X88950847Y-86223019D02*
X88998466Y-86175400D01*
X89093704Y-86127780D01*
X89331800Y-86127780D01*
X89427038Y-86175400D01*
X89474657Y-86223019D01*
X89522276Y-86318257D01*
X89522276Y-86413495D01*
X89474657Y-86556352D01*
X88903228Y-87127780D01*
X89522276Y-87127780D01*
X90379419Y-86127780D02*
X90188942Y-86127780D01*
X90093704Y-86175400D01*
X90046085Y-86223019D01*
X89950847Y-86365876D01*
X89903228Y-86556352D01*
X89903228Y-86937304D01*
X89950847Y-87032542D01*
X89998466Y-87080161D01*
X90093704Y-87127780D01*
X90284180Y-87127780D01*
X90379419Y-87080161D01*
X90427038Y-87032542D01*
X90474657Y-86937304D01*
X90474657Y-86699209D01*
X90427038Y-86603971D01*
X90379419Y-86556352D01*
X90284180Y-86508733D01*
X90093704Y-86508733D01*
X89998466Y-86556352D01*
X89950847Y-86603971D01*
X89903228Y-86699209D01*
%TO.C,J25*%
X88522276Y-80539780D02*
X88522276Y-81254066D01*
X88474657Y-81396923D01*
X88379419Y-81492161D01*
X88236561Y-81539780D01*
X88141323Y-81539780D01*
X88950847Y-80635019D02*
X88998466Y-80587400D01*
X89093704Y-80539780D01*
X89331800Y-80539780D01*
X89427038Y-80587400D01*
X89474657Y-80635019D01*
X89522276Y-80730257D01*
X89522276Y-80825495D01*
X89474657Y-80968352D01*
X88903228Y-81539780D01*
X89522276Y-81539780D01*
X90427038Y-80539780D02*
X89950847Y-80539780D01*
X89903228Y-81015971D01*
X89950847Y-80968352D01*
X90046085Y-80920733D01*
X90284180Y-80920733D01*
X90379419Y-80968352D01*
X90427038Y-81015971D01*
X90474657Y-81111209D01*
X90474657Y-81349304D01*
X90427038Y-81444542D01*
X90379419Y-81492161D01*
X90284180Y-81539780D01*
X90046085Y-81539780D01*
X89950847Y-81492161D01*
X89903228Y-81444542D01*
%TO.C,R12*%
X64303542Y-86477780D02*
X63970209Y-86001590D01*
X63732114Y-86477780D02*
X63732114Y-85477780D01*
X64113066Y-85477780D01*
X64208304Y-85525400D01*
X64255923Y-85573019D01*
X64303542Y-85668257D01*
X64303542Y-85811114D01*
X64255923Y-85906352D01*
X64208304Y-85953971D01*
X64113066Y-86001590D01*
X63732114Y-86001590D01*
X65255923Y-86477780D02*
X64684495Y-86477780D01*
X64970209Y-86477780D02*
X64970209Y-85477780D01*
X64874971Y-85620638D01*
X64779733Y-85715876D01*
X64684495Y-85763495D01*
X65636876Y-85573019D02*
X65684495Y-85525400D01*
X65779733Y-85477780D01*
X66017828Y-85477780D01*
X66113066Y-85525400D01*
X66160685Y-85573019D01*
X66208304Y-85668257D01*
X66208304Y-85763495D01*
X66160685Y-85906352D01*
X65589257Y-86477780D01*
X66208304Y-86477780D01*
%TO.C,R11*%
X64685942Y-110252180D02*
X64352609Y-109775990D01*
X64114514Y-110252180D02*
X64114514Y-109252180D01*
X64495466Y-109252180D01*
X64590704Y-109299800D01*
X64638323Y-109347419D01*
X64685942Y-109442657D01*
X64685942Y-109585514D01*
X64638323Y-109680752D01*
X64590704Y-109728371D01*
X64495466Y-109775990D01*
X64114514Y-109775990D01*
X65638323Y-110252180D02*
X65066895Y-110252180D01*
X65352609Y-110252180D02*
X65352609Y-109252180D01*
X65257371Y-109395038D01*
X65162133Y-109490276D01*
X65066895Y-109537895D01*
X66590704Y-110252180D02*
X66019276Y-110252180D01*
X66304990Y-110252180D02*
X66304990Y-109252180D01*
X66209752Y-109395038D01*
X66114514Y-109490276D01*
X66019276Y-109537895D01*
%TO.C,R10*%
X64709942Y-104333980D02*
X64376609Y-103857790D01*
X64138514Y-104333980D02*
X64138514Y-103333980D01*
X64519466Y-103333980D01*
X64614704Y-103381600D01*
X64662323Y-103429219D01*
X64709942Y-103524457D01*
X64709942Y-103667314D01*
X64662323Y-103762552D01*
X64614704Y-103810171D01*
X64519466Y-103857790D01*
X64138514Y-103857790D01*
X65662323Y-104333980D02*
X65090895Y-104333980D01*
X65376609Y-104333980D02*
X65376609Y-103333980D01*
X65281371Y-103476838D01*
X65186133Y-103572076D01*
X65090895Y-103619695D01*
X66281371Y-103333980D02*
X66376609Y-103333980D01*
X66471847Y-103381600D01*
X66519466Y-103429219D01*
X66567085Y-103524457D01*
X66614704Y-103714933D01*
X66614704Y-103953028D01*
X66567085Y-104143504D01*
X66519466Y-104238742D01*
X66471847Y-104286361D01*
X66376609Y-104333980D01*
X66281371Y-104333980D01*
X66186133Y-104286361D01*
X66138514Y-104238742D01*
X66090895Y-104143504D01*
X66043276Y-103953028D01*
X66043276Y-103714933D01*
X66090895Y-103524457D01*
X66138514Y-103429219D01*
X66186133Y-103381600D01*
X66281371Y-103333980D01*
%TO.C,R9*%
X65033733Y-98339580D02*
X64700400Y-97863390D01*
X64462304Y-98339580D02*
X64462304Y-97339580D01*
X64843257Y-97339580D01*
X64938495Y-97387200D01*
X64986114Y-97434819D01*
X65033733Y-97530057D01*
X65033733Y-97672914D01*
X64986114Y-97768152D01*
X64938495Y-97815771D01*
X64843257Y-97863390D01*
X64462304Y-97863390D01*
X65509923Y-98339580D02*
X65700400Y-98339580D01*
X65795638Y-98291961D01*
X65843257Y-98244342D01*
X65938495Y-98101485D01*
X65986114Y-97911009D01*
X65986114Y-97530057D01*
X65938495Y-97434819D01*
X65890876Y-97387200D01*
X65795638Y-97339580D01*
X65605161Y-97339580D01*
X65509923Y-97387200D01*
X65462304Y-97434819D01*
X65414685Y-97530057D01*
X65414685Y-97768152D01*
X65462304Y-97863390D01*
X65509923Y-97911009D01*
X65605161Y-97958628D01*
X65795638Y-97958628D01*
X65890876Y-97911009D01*
X65938495Y-97863390D01*
X65986114Y-97768152D01*
%TO.C,R8*%
X64779733Y-92421380D02*
X64446400Y-91945190D01*
X64208304Y-92421380D02*
X64208304Y-91421380D01*
X64589257Y-91421380D01*
X64684495Y-91469000D01*
X64732114Y-91516619D01*
X64779733Y-91611857D01*
X64779733Y-91754714D01*
X64732114Y-91849952D01*
X64684495Y-91897571D01*
X64589257Y-91945190D01*
X64208304Y-91945190D01*
X65351161Y-91849952D02*
X65255923Y-91802333D01*
X65208304Y-91754714D01*
X65160685Y-91659476D01*
X65160685Y-91611857D01*
X65208304Y-91516619D01*
X65255923Y-91469000D01*
X65351161Y-91421380D01*
X65541638Y-91421380D01*
X65636876Y-91469000D01*
X65684495Y-91516619D01*
X65732114Y-91611857D01*
X65732114Y-91659476D01*
X65684495Y-91754714D01*
X65636876Y-91802333D01*
X65541638Y-91849952D01*
X65351161Y-91849952D01*
X65255923Y-91897571D01*
X65208304Y-91945190D01*
X65160685Y-92040428D01*
X65160685Y-92230904D01*
X65208304Y-92326142D01*
X65255923Y-92373761D01*
X65351161Y-92421380D01*
X65541638Y-92421380D01*
X65636876Y-92373761D01*
X65684495Y-92326142D01*
X65732114Y-92230904D01*
X65732114Y-92040428D01*
X65684495Y-91945190D01*
X65636876Y-91897571D01*
X65541638Y-91849952D01*
%TO.C,R7*%
X64703533Y-80889780D02*
X64370200Y-80413590D01*
X64132104Y-80889780D02*
X64132104Y-79889780D01*
X64513057Y-79889780D01*
X64608295Y-79937400D01*
X64655914Y-79985019D01*
X64703533Y-80080257D01*
X64703533Y-80223114D01*
X64655914Y-80318352D01*
X64608295Y-80365971D01*
X64513057Y-80413590D01*
X64132104Y-80413590D01*
X65036866Y-79889780D02*
X65703533Y-79889780D01*
X65274961Y-80889780D01*
%TO.C,R6*%
X64601933Y-73726980D02*
X64268600Y-73250790D01*
X64030504Y-73726980D02*
X64030504Y-72726980D01*
X64411457Y-72726980D01*
X64506695Y-72774600D01*
X64554314Y-72822219D01*
X64601933Y-72917457D01*
X64601933Y-73060314D01*
X64554314Y-73155552D01*
X64506695Y-73203171D01*
X64411457Y-73250790D01*
X64030504Y-73250790D01*
X65459076Y-72726980D02*
X65268600Y-72726980D01*
X65173361Y-72774600D01*
X65125742Y-72822219D01*
X65030504Y-72965076D01*
X64982885Y-73155552D01*
X64982885Y-73536504D01*
X65030504Y-73631742D01*
X65078123Y-73679361D01*
X65173361Y-73726980D01*
X65363838Y-73726980D01*
X65459076Y-73679361D01*
X65506695Y-73631742D01*
X65554314Y-73536504D01*
X65554314Y-73298409D01*
X65506695Y-73203171D01*
X65459076Y-73155552D01*
X65363838Y-73107933D01*
X65173361Y-73107933D01*
X65078123Y-73155552D01*
X65030504Y-73203171D01*
X64982885Y-73298409D01*
%TO.C,R5*%
X64627333Y-67021380D02*
X64294000Y-66545190D01*
X64055904Y-67021380D02*
X64055904Y-66021380D01*
X64436857Y-66021380D01*
X64532095Y-66069000D01*
X64579714Y-66116619D01*
X64627333Y-66211857D01*
X64627333Y-66354714D01*
X64579714Y-66449952D01*
X64532095Y-66497571D01*
X64436857Y-66545190D01*
X64055904Y-66545190D01*
X65532095Y-66021380D02*
X65055904Y-66021380D01*
X65008285Y-66497571D01*
X65055904Y-66449952D01*
X65151142Y-66402333D01*
X65389238Y-66402333D01*
X65484476Y-66449952D01*
X65532095Y-66497571D01*
X65579714Y-66592809D01*
X65579714Y-66830904D01*
X65532095Y-66926142D01*
X65484476Y-66973761D01*
X65389238Y-67021380D01*
X65151142Y-67021380D01*
X65055904Y-66973761D01*
X65008285Y-66926142D01*
%TO.C,R4*%
X64703533Y-60976180D02*
X64370200Y-60499990D01*
X64132104Y-60976180D02*
X64132104Y-59976180D01*
X64513057Y-59976180D01*
X64608295Y-60023800D01*
X64655914Y-60071419D01*
X64703533Y-60166657D01*
X64703533Y-60309514D01*
X64655914Y-60404752D01*
X64608295Y-60452371D01*
X64513057Y-60499990D01*
X64132104Y-60499990D01*
X65560676Y-60309514D02*
X65560676Y-60976180D01*
X65322580Y-59928561D02*
X65084485Y-60642847D01*
X65703533Y-60642847D01*
%TO.C,R2*%
X65033733Y-48428580D02*
X64700400Y-47952390D01*
X64462304Y-48428580D02*
X64462304Y-47428580D01*
X64843257Y-47428580D01*
X64938495Y-47476200D01*
X64986114Y-47523819D01*
X65033733Y-47619057D01*
X65033733Y-47761914D01*
X64986114Y-47857152D01*
X64938495Y-47904771D01*
X64843257Y-47952390D01*
X64462304Y-47952390D01*
X65414685Y-47523819D02*
X65462304Y-47476200D01*
X65557542Y-47428580D01*
X65795638Y-47428580D01*
X65890876Y-47476200D01*
X65938495Y-47523819D01*
X65986114Y-47619057D01*
X65986114Y-47714295D01*
X65938495Y-47857152D01*
X65367066Y-48428580D01*
X65986114Y-48428580D01*
%TO.C,R1*%
X64957533Y-44724580D02*
X64624200Y-44248390D01*
X64386104Y-44724580D02*
X64386104Y-43724580D01*
X64767057Y-43724580D01*
X64862295Y-43772200D01*
X64909914Y-43819819D01*
X64957533Y-43915057D01*
X64957533Y-44057914D01*
X64909914Y-44153152D01*
X64862295Y-44200771D01*
X64767057Y-44248390D01*
X64386104Y-44248390D01*
X65909914Y-44724580D02*
X65338485Y-44724580D01*
X65624200Y-44724580D02*
X65624200Y-43724580D01*
X65528961Y-43867438D01*
X65433723Y-43962676D01*
X65338485Y-44010295D01*
%TO.C,R3*%
X64855933Y-50566580D02*
X64522600Y-50090390D01*
X64284504Y-50566580D02*
X64284504Y-49566580D01*
X64665457Y-49566580D01*
X64760695Y-49614200D01*
X64808314Y-49661819D01*
X64855933Y-49757057D01*
X64855933Y-49899914D01*
X64808314Y-49995152D01*
X64760695Y-50042771D01*
X64665457Y-50090390D01*
X64284504Y-50090390D01*
X65189266Y-49566580D02*
X65808314Y-49566580D01*
X65474980Y-49947533D01*
X65617838Y-49947533D01*
X65713076Y-49995152D01*
X65760695Y-50042771D01*
X65808314Y-50138009D01*
X65808314Y-50376104D01*
X65760695Y-50471342D01*
X65713076Y-50518961D01*
X65617838Y-50566580D01*
X65332123Y-50566580D01*
X65236885Y-50518961D01*
X65189266Y-50471342D01*
%TO.C,Q12*%
X69458219Y-113271228D02*
X69410600Y-113366466D01*
X69315361Y-113461704D01*
X69172504Y-113604561D01*
X69124885Y-113699800D01*
X69124885Y-113795038D01*
X69362980Y-113747419D02*
X69315361Y-113842657D01*
X69220123Y-113937895D01*
X69029647Y-113985514D01*
X68696314Y-113985514D01*
X68505838Y-113937895D01*
X68410600Y-113842657D01*
X68362980Y-113747419D01*
X68362980Y-113556942D01*
X68410600Y-113461704D01*
X68505838Y-113366466D01*
X68696314Y-113318847D01*
X69029647Y-113318847D01*
X69220123Y-113366466D01*
X69315361Y-113461704D01*
X69362980Y-113556942D01*
X69362980Y-113747419D01*
X69362980Y-112366466D02*
X69362980Y-112937895D01*
X69362980Y-112652180D02*
X68362980Y-112652180D01*
X68505838Y-112747419D01*
X68601076Y-112842657D01*
X68648695Y-112937895D01*
X68458219Y-111985514D02*
X68410600Y-111937895D01*
X68362980Y-111842657D01*
X68362980Y-111604561D01*
X68410600Y-111509323D01*
X68458219Y-111461704D01*
X68553457Y-111414085D01*
X68648695Y-111414085D01*
X68791552Y-111461704D01*
X69362980Y-112033133D01*
X69362980Y-111414085D01*
%TO.C,Q11*%
X69325419Y-107353028D02*
X69277800Y-107448266D01*
X69182561Y-107543504D01*
X69039704Y-107686361D01*
X68992085Y-107781600D01*
X68992085Y-107876838D01*
X69230180Y-107829219D02*
X69182561Y-107924457D01*
X69087323Y-108019695D01*
X68896847Y-108067314D01*
X68563514Y-108067314D01*
X68373038Y-108019695D01*
X68277800Y-107924457D01*
X68230180Y-107829219D01*
X68230180Y-107638742D01*
X68277800Y-107543504D01*
X68373038Y-107448266D01*
X68563514Y-107400647D01*
X68896847Y-107400647D01*
X69087323Y-107448266D01*
X69182561Y-107543504D01*
X69230180Y-107638742D01*
X69230180Y-107829219D01*
X69230180Y-106448266D02*
X69230180Y-107019695D01*
X69230180Y-106733980D02*
X68230180Y-106733980D01*
X68373038Y-106829219D01*
X68468276Y-106924457D01*
X68515895Y-107019695D01*
X69230180Y-105495885D02*
X69230180Y-106067314D01*
X69230180Y-105781600D02*
X68230180Y-105781600D01*
X68373038Y-105876838D01*
X68468276Y-105972076D01*
X68515895Y-106067314D01*
%TO.C,Q10*%
X69249219Y-101358628D02*
X69201600Y-101453866D01*
X69106361Y-101549104D01*
X68963504Y-101691961D01*
X68915885Y-101787200D01*
X68915885Y-101882438D01*
X69153980Y-101834819D02*
X69106361Y-101930057D01*
X69011123Y-102025295D01*
X68820647Y-102072914D01*
X68487314Y-102072914D01*
X68296838Y-102025295D01*
X68201600Y-101930057D01*
X68153980Y-101834819D01*
X68153980Y-101644342D01*
X68201600Y-101549104D01*
X68296838Y-101453866D01*
X68487314Y-101406247D01*
X68820647Y-101406247D01*
X69011123Y-101453866D01*
X69106361Y-101549104D01*
X69153980Y-101644342D01*
X69153980Y-101834819D01*
X69153980Y-100453866D02*
X69153980Y-101025295D01*
X69153980Y-100739580D02*
X68153980Y-100739580D01*
X68296838Y-100834819D01*
X68392076Y-100930057D01*
X68439695Y-101025295D01*
X68153980Y-99834819D02*
X68153980Y-99739580D01*
X68201600Y-99644342D01*
X68249219Y-99596723D01*
X68344457Y-99549104D01*
X68534933Y-99501485D01*
X68773028Y-99501485D01*
X68963504Y-99549104D01*
X69058742Y-99596723D01*
X69106361Y-99644342D01*
X69153980Y-99739580D01*
X69153980Y-99834819D01*
X69106361Y-99930057D01*
X69058742Y-99977676D01*
X68963504Y-100025295D01*
X68773028Y-100072914D01*
X68534933Y-100072914D01*
X68344457Y-100025295D01*
X68249219Y-99977676D01*
X68201600Y-99930057D01*
X68153980Y-99834819D01*
%TO.C,Q9*%
X69101219Y-94964238D02*
X69053600Y-95059476D01*
X68958361Y-95154714D01*
X68815504Y-95297571D01*
X68767885Y-95392809D01*
X68767885Y-95488047D01*
X69005980Y-95440428D02*
X68958361Y-95535666D01*
X68863123Y-95630904D01*
X68672647Y-95678523D01*
X68339314Y-95678523D01*
X68148838Y-95630904D01*
X68053600Y-95535666D01*
X68005980Y-95440428D01*
X68005980Y-95249952D01*
X68053600Y-95154714D01*
X68148838Y-95059476D01*
X68339314Y-95011857D01*
X68672647Y-95011857D01*
X68863123Y-95059476D01*
X68958361Y-95154714D01*
X69005980Y-95249952D01*
X69005980Y-95440428D01*
X69005980Y-94535666D02*
X69005980Y-94345190D01*
X68958361Y-94249952D01*
X68910742Y-94202333D01*
X68767885Y-94107095D01*
X68577409Y-94059476D01*
X68196457Y-94059476D01*
X68101219Y-94107095D01*
X68053600Y-94154714D01*
X68005980Y-94249952D01*
X68005980Y-94440428D01*
X68053600Y-94535666D01*
X68101219Y-94583285D01*
X68196457Y-94630904D01*
X68434552Y-94630904D01*
X68529790Y-94583285D01*
X68577409Y-94535666D01*
X68625028Y-94440428D01*
X68625028Y-94249952D01*
X68577409Y-94154714D01*
X68529790Y-94107095D01*
X68434552Y-94059476D01*
%TO.C,Q8*%
X69101219Y-89020638D02*
X69053600Y-89115876D01*
X68958361Y-89211114D01*
X68815504Y-89353971D01*
X68767885Y-89449209D01*
X68767885Y-89544447D01*
X69005980Y-89496828D02*
X68958361Y-89592066D01*
X68863123Y-89687304D01*
X68672647Y-89734923D01*
X68339314Y-89734923D01*
X68148838Y-89687304D01*
X68053600Y-89592066D01*
X68005980Y-89496828D01*
X68005980Y-89306352D01*
X68053600Y-89211114D01*
X68148838Y-89115876D01*
X68339314Y-89068257D01*
X68672647Y-89068257D01*
X68863123Y-89115876D01*
X68958361Y-89211114D01*
X69005980Y-89306352D01*
X69005980Y-89496828D01*
X68434552Y-88496828D02*
X68386933Y-88592066D01*
X68339314Y-88639685D01*
X68244076Y-88687304D01*
X68196457Y-88687304D01*
X68101219Y-88639685D01*
X68053600Y-88592066D01*
X68005980Y-88496828D01*
X68005980Y-88306352D01*
X68053600Y-88211114D01*
X68101219Y-88163495D01*
X68196457Y-88115876D01*
X68244076Y-88115876D01*
X68339314Y-88163495D01*
X68386933Y-88211114D01*
X68434552Y-88306352D01*
X68434552Y-88496828D01*
X68482171Y-88592066D01*
X68529790Y-88639685D01*
X68625028Y-88687304D01*
X68815504Y-88687304D01*
X68910742Y-88639685D01*
X68958361Y-88592066D01*
X69005980Y-88496828D01*
X69005980Y-88306352D01*
X68958361Y-88211114D01*
X68910742Y-88163495D01*
X68815504Y-88115876D01*
X68625028Y-88115876D01*
X68529790Y-88163495D01*
X68482171Y-88211114D01*
X68434552Y-88306352D01*
%TO.C,Q7*%
X69101219Y-83432638D02*
X69053600Y-83527876D01*
X68958361Y-83623114D01*
X68815504Y-83765971D01*
X68767885Y-83861209D01*
X68767885Y-83956447D01*
X69005980Y-83908828D02*
X68958361Y-84004066D01*
X68863123Y-84099304D01*
X68672647Y-84146923D01*
X68339314Y-84146923D01*
X68148838Y-84099304D01*
X68053600Y-84004066D01*
X68005980Y-83908828D01*
X68005980Y-83718352D01*
X68053600Y-83623114D01*
X68148838Y-83527876D01*
X68339314Y-83480257D01*
X68672647Y-83480257D01*
X68863123Y-83527876D01*
X68958361Y-83623114D01*
X69005980Y-83718352D01*
X69005980Y-83908828D01*
X68005980Y-83146923D02*
X68005980Y-82480257D01*
X69005980Y-82908828D01*
%TO.C,Q6*%
X69096819Y-76269838D02*
X69049200Y-76365076D01*
X68953961Y-76460314D01*
X68811104Y-76603171D01*
X68763485Y-76698409D01*
X68763485Y-76793647D01*
X69001580Y-76746028D02*
X68953961Y-76841266D01*
X68858723Y-76936504D01*
X68668247Y-76984123D01*
X68334914Y-76984123D01*
X68144438Y-76936504D01*
X68049200Y-76841266D01*
X68001580Y-76746028D01*
X68001580Y-76555552D01*
X68049200Y-76460314D01*
X68144438Y-76365076D01*
X68334914Y-76317457D01*
X68668247Y-76317457D01*
X68858723Y-76365076D01*
X68953961Y-76460314D01*
X69001580Y-76555552D01*
X69001580Y-76746028D01*
X68001580Y-75460314D02*
X68001580Y-75650790D01*
X68049200Y-75746028D01*
X68096819Y-75793647D01*
X68239676Y-75888885D01*
X68430152Y-75936504D01*
X68811104Y-75936504D01*
X68906342Y-75888885D01*
X68953961Y-75841266D01*
X69001580Y-75746028D01*
X69001580Y-75555552D01*
X68953961Y-75460314D01*
X68906342Y-75412695D01*
X68811104Y-75365076D01*
X68573009Y-75365076D01*
X68477771Y-75412695D01*
X68430152Y-75460314D01*
X68382533Y-75555552D01*
X68382533Y-75746028D01*
X68430152Y-75841266D01*
X68477771Y-75888885D01*
X68573009Y-75936504D01*
%TO.C,Q5*%
X69101219Y-69564238D02*
X69053600Y-69659476D01*
X68958361Y-69754714D01*
X68815504Y-69897571D01*
X68767885Y-69992809D01*
X68767885Y-70088047D01*
X69005980Y-70040428D02*
X68958361Y-70135666D01*
X68863123Y-70230904D01*
X68672647Y-70278523D01*
X68339314Y-70278523D01*
X68148838Y-70230904D01*
X68053600Y-70135666D01*
X68005980Y-70040428D01*
X68005980Y-69849952D01*
X68053600Y-69754714D01*
X68148838Y-69659476D01*
X68339314Y-69611857D01*
X68672647Y-69611857D01*
X68863123Y-69659476D01*
X68958361Y-69754714D01*
X69005980Y-69849952D01*
X69005980Y-70040428D01*
X68005980Y-68707095D02*
X68005980Y-69183285D01*
X68482171Y-69230904D01*
X68434552Y-69183285D01*
X68386933Y-69088047D01*
X68386933Y-68849952D01*
X68434552Y-68754714D01*
X68482171Y-68707095D01*
X68577409Y-68659476D01*
X68815504Y-68659476D01*
X68910742Y-68707095D01*
X68958361Y-68754714D01*
X69005980Y-68849952D01*
X69005980Y-69088047D01*
X68958361Y-69183285D01*
X68910742Y-69230904D01*
%TO.C,Q4*%
X69101219Y-63519038D02*
X69053600Y-63614276D01*
X68958361Y-63709514D01*
X68815504Y-63852371D01*
X68767885Y-63947609D01*
X68767885Y-64042847D01*
X69005980Y-63995228D02*
X68958361Y-64090466D01*
X68863123Y-64185704D01*
X68672647Y-64233323D01*
X68339314Y-64233323D01*
X68148838Y-64185704D01*
X68053600Y-64090466D01*
X68005980Y-63995228D01*
X68005980Y-63804752D01*
X68053600Y-63709514D01*
X68148838Y-63614276D01*
X68339314Y-63566657D01*
X68672647Y-63566657D01*
X68863123Y-63614276D01*
X68958361Y-63709514D01*
X69005980Y-63804752D01*
X69005980Y-63995228D01*
X68339314Y-62709514D02*
X69005980Y-62709514D01*
X67958361Y-62947609D02*
X68672647Y-63185704D01*
X68672647Y-62566657D01*
%TO.C,Q3*%
X68923419Y-57092838D02*
X68875800Y-57188076D01*
X68780561Y-57283314D01*
X68637704Y-57426171D01*
X68590085Y-57521409D01*
X68590085Y-57616647D01*
X68828180Y-57569028D02*
X68780561Y-57664266D01*
X68685323Y-57759504D01*
X68494847Y-57807123D01*
X68161514Y-57807123D01*
X67971038Y-57759504D01*
X67875800Y-57664266D01*
X67828180Y-57569028D01*
X67828180Y-57378552D01*
X67875800Y-57283314D01*
X67971038Y-57188076D01*
X68161514Y-57140457D01*
X68494847Y-57140457D01*
X68685323Y-57188076D01*
X68780561Y-57283314D01*
X68828180Y-57378552D01*
X68828180Y-57569028D01*
X67828180Y-56807123D02*
X67828180Y-56188076D01*
X68209133Y-56521409D01*
X68209133Y-56378552D01*
X68256752Y-56283314D01*
X68304371Y-56235695D01*
X68399609Y-56188076D01*
X68637704Y-56188076D01*
X68732942Y-56235695D01*
X68780561Y-56283314D01*
X68828180Y-56378552D01*
X68828180Y-56664266D01*
X68780561Y-56759504D01*
X68732942Y-56807123D01*
%TO.C,Q2*%
X68923419Y-50971438D02*
X68875800Y-51066676D01*
X68780561Y-51161914D01*
X68637704Y-51304771D01*
X68590085Y-51400009D01*
X68590085Y-51495247D01*
X68828180Y-51447628D02*
X68780561Y-51542866D01*
X68685323Y-51638104D01*
X68494847Y-51685723D01*
X68161514Y-51685723D01*
X67971038Y-51638104D01*
X67875800Y-51542866D01*
X67828180Y-51447628D01*
X67828180Y-51257152D01*
X67875800Y-51161914D01*
X67971038Y-51066676D01*
X68161514Y-51019057D01*
X68494847Y-51019057D01*
X68685323Y-51066676D01*
X68780561Y-51161914D01*
X68828180Y-51257152D01*
X68828180Y-51447628D01*
X67923419Y-50638104D02*
X67875800Y-50590485D01*
X67828180Y-50495247D01*
X67828180Y-50257152D01*
X67875800Y-50161914D01*
X67923419Y-50114295D01*
X68018657Y-50066676D01*
X68113895Y-50066676D01*
X68256752Y-50114295D01*
X68828180Y-50685723D01*
X68828180Y-50066676D01*
%TO.C,Q1*%
X68771019Y-44367438D02*
X68723400Y-44462676D01*
X68628161Y-44557914D01*
X68485304Y-44700771D01*
X68437685Y-44796009D01*
X68437685Y-44891247D01*
X68675780Y-44843628D02*
X68628161Y-44938866D01*
X68532923Y-45034104D01*
X68342447Y-45081723D01*
X68009114Y-45081723D01*
X67818638Y-45034104D01*
X67723400Y-44938866D01*
X67675780Y-44843628D01*
X67675780Y-44653152D01*
X67723400Y-44557914D01*
X67818638Y-44462676D01*
X68009114Y-44415057D01*
X68342447Y-44415057D01*
X68532923Y-44462676D01*
X68628161Y-44557914D01*
X68675780Y-44653152D01*
X68675780Y-44843628D01*
X68675780Y-43462676D02*
X68675780Y-44034104D01*
X68675780Y-43748390D02*
X67675780Y-43748390D01*
X67818638Y-43843628D01*
X67913876Y-43938866D01*
X67961495Y-44034104D01*
D12*
%TO.C,J6*%
X54095600Y-54961400D02*
X56695600Y-54961400D01*
X51495600Y-54961400D02*
X52825600Y-54961400D01*
X51495600Y-57561400D02*
X51495600Y-105881400D01*
X51495600Y-56291400D02*
X51495600Y-54961400D01*
X51495600Y-57561400D02*
X54095600Y-57561400D01*
X51495600Y-105881400D02*
X56695600Y-105881400D01*
X56695600Y-54961400D02*
X56695600Y-105881400D01*
X54095600Y-57561400D02*
X54095600Y-54961400D01*
%TO.C,R12*%
X63546400Y-91025400D02*
X66346400Y-91025400D01*
X63546400Y-86825400D02*
X66346400Y-86825400D01*
X63560363Y-86816158D02*
G75*
G03*
X63546400Y-91025400I1386037J-2109242D01*
G01*
X66332437Y-91034642D02*
G75*
G03*
X66346400Y-86825400I-1386037J2109242D01*
G01*
%TO.C,R11*%
X63928800Y-114799800D02*
X66728800Y-114799800D01*
X63928800Y-110599800D02*
X66728800Y-110599800D01*
X63942763Y-110590558D02*
G75*
G03*
X63928800Y-114799800I1386037J-2109242D01*
G01*
X66714837Y-114809042D02*
G75*
G03*
X66728800Y-110599800I-1386037J2109242D01*
G01*
%TO.C,R10*%
X63952800Y-108881600D02*
X66752800Y-108881600D01*
X63952800Y-104681600D02*
X66752800Y-104681600D01*
X63966763Y-104672358D02*
G75*
G03*
X63952800Y-108881600I1386037J-2109242D01*
G01*
X66738837Y-108890842D02*
G75*
G03*
X66752800Y-104681600I-1386037J2109242D01*
G01*
%TO.C,R9*%
X63800400Y-102887200D02*
X66600400Y-102887200D01*
X63800400Y-98687200D02*
X66600400Y-98687200D01*
X63814363Y-98677958D02*
G75*
G03*
X63800400Y-102887200I1386037J-2109242D01*
G01*
X66586437Y-102896442D02*
G75*
G03*
X66600400Y-98687200I-1386037J2109242D01*
G01*
%TO.C,R8*%
X63546400Y-96969000D02*
X66346400Y-96969000D01*
X63546400Y-92769000D02*
X66346400Y-92769000D01*
X63560363Y-92759758D02*
G75*
G03*
X63546400Y-96969000I1386037J-2109242D01*
G01*
X66332437Y-96978242D02*
G75*
G03*
X66346400Y-92769000I-1386037J2109242D01*
G01*
%TO.C,R7*%
X63470200Y-85437400D02*
X66270200Y-85437400D01*
X63470200Y-81237400D02*
X66270200Y-81237400D01*
X63484163Y-81228158D02*
G75*
G03*
X63470200Y-85437400I1386037J-2109242D01*
G01*
X66256237Y-85446642D02*
G75*
G03*
X66270200Y-81237400I-1386037J2109242D01*
G01*
%TO.C,R6*%
X63368600Y-78274600D02*
X66168600Y-78274600D01*
X63368600Y-74074600D02*
X66168600Y-74074600D01*
X63382563Y-74065358D02*
G75*
G03*
X63368600Y-78274600I1386037J-2109242D01*
G01*
X66154637Y-78283842D02*
G75*
G03*
X66168600Y-74074600I-1386037J2109242D01*
G01*
%TO.C,R5*%
X63394000Y-71569000D02*
X66194000Y-71569000D01*
X63394000Y-67369000D02*
X66194000Y-67369000D01*
X63407963Y-67359758D02*
G75*
G03*
X63394000Y-71569000I1386037J-2109242D01*
G01*
X66180037Y-71578242D02*
G75*
G03*
X66194000Y-67369000I-1386037J2109242D01*
G01*
%TO.C,R4*%
X63470200Y-65523800D02*
X66270200Y-65523800D01*
X63470200Y-61323800D02*
X66270200Y-61323800D01*
X63484163Y-61314558D02*
G75*
G03*
X63470200Y-65523800I1386037J-2109242D01*
G01*
X66256237Y-65533042D02*
G75*
G03*
X66270200Y-61323800I-1386037J2109242D01*
G01*
%TO.C,R2*%
X63800400Y-52976200D02*
X66600400Y-52976200D01*
X63800400Y-48776200D02*
X66600400Y-48776200D01*
X63814363Y-48766958D02*
G75*
G03*
X63800400Y-52976200I1386037J-2109242D01*
G01*
X66586437Y-52985442D02*
G75*
G03*
X66600400Y-48776200I-1386037J2109242D01*
G01*
%TO.C,R1*%
X63724200Y-47464400D02*
X66524200Y-47464400D01*
X63724200Y-43264400D02*
X66524200Y-43264400D01*
X63738163Y-43255158D02*
G75*
G03*
X63724200Y-47464400I1386037J-2109242D01*
G01*
X66510237Y-47473642D02*
G75*
G03*
X66524200Y-43264400I-1386037J2109242D01*
G01*
%TO.C,R3*%
X63622600Y-59097600D02*
X66422600Y-59097600D01*
X63622600Y-54897600D02*
X66422600Y-54897600D01*
X63636563Y-54888358D02*
G75*
G03*
X63622600Y-59097600I1386037J-2109242D01*
G01*
X66408637Y-59106842D02*
G75*
G03*
X66422600Y-54897600I-1386037J2109242D01*
G01*
%TO.C,Q12*%
X74320600Y-114499800D02*
X74320600Y-110899800D01*
X74309078Y-110861322D02*
G75*
G03*
X69870600Y-112699800I-1838478J-1838478D01*
G01*
X69870599Y-112699800D02*
G75*
G03*
X74309078Y-114538278I2600001J0D01*
G01*
%TO.C,Q11*%
X74187800Y-108581600D02*
X74187800Y-104981600D01*
X74176278Y-104943122D02*
G75*
G03*
X69737800Y-106781600I-1838478J-1838478D01*
G01*
X69737799Y-106781600D02*
G75*
G03*
X74176278Y-108620078I2600001J0D01*
G01*
%TO.C,Q10*%
X74111600Y-102587200D02*
X74111600Y-98987200D01*
X74100078Y-98948722D02*
G75*
G03*
X69661600Y-100787200I-1838478J-1838478D01*
G01*
X69661599Y-100787200D02*
G75*
G03*
X74100078Y-102625678I2600001J0D01*
G01*
%TO.C,Q9*%
X73963600Y-96669000D02*
X73963600Y-93069000D01*
X73952078Y-93030522D02*
G75*
G03*
X69513600Y-94869000I-1838478J-1838478D01*
G01*
X69513599Y-94869000D02*
G75*
G03*
X73952078Y-96707478I2600001J0D01*
G01*
%TO.C,Q8*%
X73963600Y-90725400D02*
X73963600Y-87125400D01*
X73952078Y-87086922D02*
G75*
G03*
X69513600Y-88925400I-1838478J-1838478D01*
G01*
X69513599Y-88925400D02*
G75*
G03*
X73952078Y-90763878I2600001J0D01*
G01*
%TO.C,Q7*%
X73963600Y-85137400D02*
X73963600Y-81537400D01*
X73952078Y-81498922D02*
G75*
G03*
X69513600Y-83337400I-1838478J-1838478D01*
G01*
X69513599Y-83337400D02*
G75*
G03*
X73952078Y-85175878I2600001J0D01*
G01*
%TO.C,Q6*%
X73959200Y-77974600D02*
X73959200Y-74374600D01*
X73947678Y-74336122D02*
G75*
G03*
X69509200Y-76174600I-1838478J-1838478D01*
G01*
X69509199Y-76174600D02*
G75*
G03*
X73947678Y-78013078I2600001J0D01*
G01*
%TO.C,Q5*%
X73963600Y-71269000D02*
X73963600Y-67669000D01*
X73952078Y-67630522D02*
G75*
G03*
X69513600Y-69469000I-1838478J-1838478D01*
G01*
X69513599Y-69469000D02*
G75*
G03*
X73952078Y-71307478I2600001J0D01*
G01*
%TO.C,Q4*%
X73963600Y-65223800D02*
X73963600Y-61623800D01*
X73952078Y-61585322D02*
G75*
G03*
X69513600Y-63423800I-1838478J-1838478D01*
G01*
X69513599Y-63423800D02*
G75*
G03*
X73952078Y-65262278I2600001J0D01*
G01*
%TO.C,Q3*%
X73785800Y-58797600D02*
X73785800Y-55197600D01*
X73774278Y-55159122D02*
G75*
G03*
X69335800Y-56997600I-1838478J-1838478D01*
G01*
X69335799Y-56997600D02*
G75*
G03*
X73774278Y-58836078I2600001J0D01*
G01*
%TO.C,Q2*%
X73785800Y-52676200D02*
X73785800Y-49076200D01*
X73774278Y-49037722D02*
G75*
G03*
X69335800Y-50876200I-1838478J-1838478D01*
G01*
X69335799Y-50876200D02*
G75*
G03*
X73774278Y-52714678I2600001J0D01*
G01*
%TO.C,Q1*%
X73633400Y-46554800D02*
X73633400Y-42954800D01*
X73621878Y-42916322D02*
G75*
G03*
X69183400Y-44754800I-1838478J-1838478D01*
G01*
X69183399Y-44754800D02*
G75*
G03*
X73621878Y-46593278I2600001J0D01*
G01*
%TD*%
M02*
